<?xml version="1.0" standalone="no"?>
<!DOCTYPE svg PUBLIC "-//W3C//DTD SVG 1.1//EN" "http://www.w3.org/Graphics/SVG/1.1/DTD/svg11.dtd" >
<svg xmlns="http://www.w3.org/2000/svg">
<metadata></metadata>
<defs>
<font id="geared_slabregular" horiz-adv-x="788" >
<font-face units-per-em="2048" ascent="1536" descent="-512" />
<missing-glyph horiz-adv-x="512" />
<glyph unicode="&#xfb01;" horiz-adv-x="911" d="M39 846v59q0 41 24.5 79t96.5 38v246v49q0 51 21.5 97t62.5 77t99 41t134 -8q4 0 11.5 -6.5t7.5 -14.5v-127q0 -12 -6.5 -16t-10.5 -2q-63 16 -94 -9.5t-31 -72.5v-70v-184h119v-64q0 -49 -29.5 -80.5t-89.5 -31.5v-647q0 -20 6.5 -28.5t16.5 -16.5q14 -10 29.5 -33 t15.5 -62v-59h-332v61q0 39 15.5 61.5t31.5 33.5q10 8 16.5 16t6.5 29v645h-121zM244 956v68h483q47 0 47 -39v-788q0 -18 6.5 -27.5t16.5 -15.5q16 -10 31.5 -34t15.5 -63l2 -57h-336v59q0 39 15.5 62.5t31.5 34.5q8 6 14.5 13t8.5 21l-2 660l-289 -2q-16 0 -30.5 37 t-14.5 71zM561 1257q0 45 31 76t76 31q43 0 74.5 -30.5t31.5 -76.5q0 -43 -31.5 -74.5t-74.5 -31.5q-45 0 -76 31.5t-31 74.5z" />
<glyph unicode="&#xfb02;" horiz-adv-x="909" d="M39 848v59q0 41 24.5 79t96.5 38v246v49q0 51 21.5 97t62.5 77t99 41t134 -8q4 0 11.5 -6.5t7.5 -14.5v-127q0 -6 -6.5 -9t-28.5 -3q-37 0 -58.5 -3t-33 -13.5t-13.5 -27.5t-2 -44v-70v-184h119v-63q0 -49 -29.5 -81t-89.5 -32v-647q0 -20 6.5 -28.5t16.5 -16.5 q14 -10 29.5 -33t15.5 -62v-59h-332v61q0 39 15.5 61.5t31.5 33.5q10 8 16.5 16t6.5 29v645h-121zM346 1466q0 20 6 32.5t15 23.5q8 8 22 16h354q51 0 52 -51v-1290q0 -18 6 -27.5t16 -15.5q16 -10 31.5 -34t15.5 -63v-57h-334v59q0 39 15.5 62.5t32.5 34.5q8 6 14 12t8 22 v1176h-209q-16 0 -30.5 33t-14.5 67z" />
<glyph horiz-adv-x="2048" />
<glyph horiz-adv-x="2048" />
<glyph unicode="&#xd;" horiz-adv-x="512" />
<glyph unicode=" "  horiz-adv-x="512" />
<glyph unicode="&#x09;" horiz-adv-x="512" />
<glyph unicode="&#xa0;" horiz-adv-x="512" />
<glyph unicode="!" horiz-adv-x="417" d="M106 12v2v138q0 16 29 22t72 6q47 0 75.5 -6t28.5 -18v-142q0 -14 -28.5 -23t-75.5 -9t-74 7t-27 23zM113 1503q0 43 39 43h116q23 0 30 -10t7 -39q0 -10 -1 -85t-2 -185.5t-3 -241.5t-4 -254t-3 -223t-1 -146q0 -33 -33 -32h-106q-25 0 -25 39q-2 49 -3 150.5t-2 225 t-3 256t-3 242t-2 182t-1 78.5z" />
<glyph unicode="&#x22;" horiz-adv-x="602" d="M70 1516q0 23 20.5 27.5t67.5 4.5q96 0 96 -28l-21 -211q0 -16 -13 -23.5t-62 -7.5q-51 0 -59.5 5t-8.5 22v4zM342 1516q0 23 20.5 27.5t67.5 4.5q98 0 98 -28l-20 -211q0 -16 -10.5 -23.5t-61.5 -7.5q-49 0 -61.5 5t-12.5 22v4z" />
<glyph unicode="#" horiz-adv-x="1445" d="M49 358v123q0 10 10 11h367q6 0 12 10l35 233q0 10 -8 10h-326q-10 0 -10 11v123q0 10 10 10h346q12 0 13 10l47 311q0 10 12 11h123q12 0 8 -11l-45 -311q-4 -10 8 -10h252q8 0 12 10l48 311q0 10 10 11h125q8 0 8 -11l-47 -311q0 -10 8 -10h319q10 0 11 -10v-123 q0 -10 -11 -11h-339q-12 0 -13 -10l-35 -233q-6 -10 9 -10h299q10 0 10 -11v-123q0 -10 -10 -10h-322q-10 0 -10 -10l-49 -328q-6 -10 -13 -10h-125q-8 0 -8 10l49 328q4 10 -8 10h-252q-8 0 -12 -10l-49 -328q0 -10 -12 -10h-123q-14 0 -8 10l49 328q0 10 -11 10h-344 q-10 0 -10 10zM582 502q0 -10 10 -10h252q10 0 10 10l37 233q0 10 -10 10h-252q-8 0 -13 -10z" />
<glyph unicode="$" horiz-adv-x="823" d="M39 291v141h98q55 0 83 -25.5t28 -72.5v-76q0 -27 15.5 -47.5t39 -34.5t52 -22.5t55.5 -8.5t55.5 9.5t53 25t39.5 37t15 47.5v217q0 68 -37.5 116t-95 87t-124 77t-124 83t-95.5 105.5t-38 146.5v145q0 82 27 140.5t74 96.5t110.5 55t139.5 17t140 -19.5t112.5 -57 t75 -96t26.5 -136.5v-137h-92q-51 0 -86 32.5t-35 82.5v61q0 25 -14.5 43t-36 29.5t-47 16.5t-45.5 5q-23 0 -47.5 -6t-47 -18.5t-37 -29.5t-14.5 -40v-203q0 -41 39 -77.5t96.5 -74.5t126 -80t126 -93.5t96 -115t38.5 -144.5v-201q0 -78 -30.5 -136.5t-81.5 -96.5t-119 -56 t-143 -18q-76 0 -143.5 18t-118 56t-80 96.5t-29.5 136.5zM360 25h101v-140h-101v140zM362 1509v140h101v-140h-101z" />
<glyph unicode="%" horiz-adv-x="1222" d="M49 1145v35v57v25q6 145 67 221t206 76q74 0 126 -25t84.5 -66t48 -93t15.5 -107v-6v-111v-6q-2 -131 -64.5 -212t-209.5 -81q-141 0 -202 76t-71 217zM223 1137q0 -80 21.5 -117t77.5 -37q55 0 77.5 33t22.5 129v119q0 92 -21.5 124.5t-78.5 32.5q-55 0 -77 -33.5 t-22 -113.5v-12v-117v-8zM266 -14l516 1566q2 6 9 7h159q4 0 4 -7l-514 -1566q0 -6 -8 -6h-162q-8 0 -4 6zM627 268v37v55v27q8 143 68.5 219t205.5 76q74 0 126 -24.5t85 -64.5t47.5 -93.5t14.5 -108.5v-4v-113v-6q-2 -131 -64.5 -212t-208.5 -81q-143 0 -202.5 76 t-69.5 217h-2zM801 262q0 -82 21.5 -119t78.5 -37q55 0 76.5 34t21.5 128v121q0 90 -21.5 123t-76.5 33q-57 0 -78.5 -33t-21.5 -115v-10v-119v-6z" />
<glyph unicode="&#x26;" horiz-adv-x="1044" d="M100 291v256q0 43 9.5 88t27 82t43 60.5t60.5 23.5q-35 0 -60.5 23.5t-42 60.5t-25 83t-8.5 89v184q0 78 27 136.5t74 97t111.5 58t140.5 19.5q63 0 118.5 -12t98.5 -39q8 -4 11 -17.5t-7 -23.5l-98 -98q-12 -14 -21.5 -13t-26.5 7q-16 8 -35.5 10t-39.5 2 q-29 0 -55.5 -6t-47 -21.5t-34 -42t-13.5 -67.5v-199q0 -72 45 -115t111 -43h147q0 10 4 30t15.5 38.5t33 32.5t58.5 14h90v-115h102q10 0 13.5 -5t7.5 -9l4 -12v-117q0 -14 -9 -20t-20 -6h-98v-422q0 -14 -2 -23v-37q0 -43 32 -67.5t91 -14.5q10 2 22.5 -3t12.5 -23v-76 q0 -27 -9.5 -36t-15.5 -11q-84 -20 -149.5 -6t-108.5 53q-94 -59 -227 -59q-76 0 -140.5 19t-112.5 58t-76 97.5t-28 136.5zM303 301q0 -41 13.5 -67.5t36 -42t49 -21.5t55.5 -6q57 0 104 26.5t49 104.5v410h-153q-63 0 -108.5 -43.5t-45.5 -114.5v-246z" />
<glyph unicode="'" horiz-adv-x="262" d="M37 1516q0 23 20.5 27.5t67.5 4.5q98 0 98 -28l-20 -211q0 -16 -10.5 -23.5t-61.5 -7.5q-49 0 -61.5 5t-12.5 22v4z" />
<glyph unicode="(" horiz-adv-x="546" d="M49 -29v1590v10q0 82 51.5 131t147.5 49h12h234q4 0 4 -6v-174q0 -6 -4 -6h-215q-25 0 -25 -25v-1560q0 -14 16 -15h224q4 0 4 -4v-174q0 -6 -4 -6h-234h-12q-104 0 -151.5 43t-47.5 137v10z" />
<glyph unicode=")" horiz-adv-x="546" d="M49 -39q0 6 4 6h215q25 0 25 25v1560q0 14 -17 15h-223q-4 0 -4 4v174q0 6 4 6h234h12q104 0 151.5 -43t47.5 -137v-10v-1590v-10q0 -82 -51.5 -131t-147.5 -49h-12h-234q-4 0 -4 6v174z" />
<glyph unicode="*" horiz-adv-x="477" d="M49 1436l43 108q0 4 8 4l74 -28q4 -4 4 2l4 77q0 6 6 7l117 -7q6 0 4 -6l-2 -69q0 -8 4 -4l80 18q4 2 8 -4l27 -113q6 -6 -4 -6l-78 -20q-6 0 -2 -6l49 -76q2 -4 -2 -8l-96 -62q-6 -2 -8 0l-39 62q-6 6 -6 0l-41 -64q-4 -6 -9 -2l-98 61q-2 2 -2 9l51 80q2 2 -2 8l-86 33 q-4 0 -4 6z" />
<glyph unicode="+" horiz-adv-x="700" d="M49 535v153q0 6 4 6h209q6 0 6 4v209q0 6 6 6h152q6 0 6 -6v-209q0 -4 6 -4h207q6 0 6 -6v-153q0 -6 -6 -7h-207q-6 0 -6 -6v-207q0 -6 -6 -6h-152q-6 0 -6 6v207q0 6 -6 6h-209q-4 0 -4 7z" />
<glyph unicode="," horiz-adv-x="309" d="M49 10v144q0 18 31 24t76 6q47 0 75.5 -7t28.5 -19v-148v-41q0 -35 -4 -58.5t-15.5 -44t-31 -42t-49.5 -51.5q-18 -18 -24.5 -14.5t-20.5 14.5q-14 12 -13.5 19t21.5 28q63 63 61 111.5t-49 48.5t-66.5 7t-19.5 23z" />
<glyph unicode="-" horiz-adv-x="487" d="M49 532v154q0 6 6 6h377q6 0 6 -6v-154q0 -6 -6 -6h-377q-6 0 -6 6z" />
<glyph unicode="." horiz-adv-x="317" d="M49 25v4v125q0 18 31 25t78 7q49 0 79.5 -7t30.5 -21v-129q0 -16 -30.5 -25.5t-79.5 -9.5t-79 7t-30 24z" />
<glyph unicode="/" horiz-adv-x="559" d="M61 6l254 1518q0 6 7 6h174q6 0 4 -6l-260 -1518q-6 -6 -9 -6h-165q-4 0 -5 6z" />
<glyph unicode="0" horiz-adv-x="815" d="M59 299v950q0 78 27 136.5t73 96.5t109.5 56t139.5 18t140 -18t110.5 -56t72 -96.5t25.5 -136.5v-950q0 -78 -25.5 -136.5t-72 -97t-110.5 -57t-140 -18.5t-139.5 18.5t-109.5 57t-73 97t-27 136.5zM260 297q0 -41 12.5 -67.5t33 -42t47 -21.5t55.5 -6t55 6t46.5 21.5 t33 42t12.5 67.5v954q0 41 -12.5 68t-33 42t-47 21.5t-54.5 6.5q-29 0 -55.5 -6.5t-47 -21.5t-33 -42t-12.5 -68v-954z" />
<glyph unicode="1" horiz-adv-x="528" d="M39 1325v41q66 4 119 29.5t78 83.5q4 14 19 35.5t50 21.5h111l2 -1339q0 -20 6 -28.5t14 -14.5q16 -12 32.5 -35t16.5 -58v-61h-342v61q0 35 16.5 57.5t33.5 35.5q8 6 14 13t6 23v1002q0 20 -25 20h-49q-8 0 -25.5 4.5t-33.5 16.5t-29.5 33.5t-13.5 58.5z" />
<glyph unicode="2" horiz-adv-x="786" d="M39 1190v16v35q0 78 26.5 136.5t72.5 97t109.5 58t137.5 19.5t137.5 -19.5t110.5 -58t73.5 -97t26.5 -136.5v-231q0 -68 -27.5 -121t-68.5 -98.5t-92 -84t-96 -77.5q-47 -41 -85 -70t-66 -55.5t-42 -57t-14 -73.5v-137q0 -27 13 -40.5t36 -13.5h256q20 0 26 21 q10 18 34 42.5t71 24.5h70v-219q0 -8 -8.5 -29.5t-45.5 -21.5h-125h-2h-417q-29 0 -49.5 11.5t-34 27.5t-19.5 35.5t-6 38.5v270q0 68 21.5 117t56.5 90t79 76.5t91 74.5q47 41 90 73t76.5 62.5t54 64.5t20.5 77v213q0 41 -13 67.5t-33.5 42t-46 21.5t-52.5 6 q-29 0 -54.5 -6t-46 -21.5t-32.5 -42t-12 -67.5v-25v-125h-86q-72 0 -93.5 34t-21.5 75z" />
<glyph unicode="3" horiz-adv-x="829" d="M59 287v176h91q37 0 58 -14.5t32.5 -33t15.5 -38t4 -29.5v-26v-23q2 -78 49 -104.5t105 -26.5q27 0 54.5 6t50 21.5t35.5 42t13 67.5v246q0 72 -45 115t-108 43h-6h-99q-10 0 -19 6t-9 20v117q-2 6 2 12q4 14 22 15h103q66 0 110.5 43t44.5 114v199q0 41 -13 67.5 t-33.5 42t-48.5 21.5t-54 6q-29 0 -56.5 -6t-49 -21.5t-35 -42t-13.5 -65.5v-4v-27q0 -10 -4 -29.5t-15.5 -38t-33 -32.5t-57.5 -14h-91v176h2q2 74 31 128t76 90t109.5 53t136.5 17q76 0 140 -19t111.5 -58t74 -97.5t26.5 -136.5v-184q0 -43 -8 -89t-24.5 -83t-42 -60.5 t-60.5 -23.5q35 0 60.5 -23.5t43 -60.5t26.5 -82t9 -88v-256q0 -78 -27.5 -136.5t-76 -97t-113 -58t-139.5 -19.5q-152 0 -251.5 74.5t-103.5 228.5z" />
<glyph unicode="4" horiz-adv-x="843" d="M45 399v88q0 6 1 13.5t5 19.5q10 33 40 113t68 183.5t80 216t77.5 208.5t61 162.5t30.5 79.5q16 39 37.5 46t50.5 7h135q23 0 39 -7t16 -36v-961q0 -14 10 -14q12 0 26.5 -3t29 -15.5t23.5 -34t9 -57.5v-64h-86q-12 0 -12 -12v-133q0 -23 5 -31t16 -14q16 -12 32.5 -35 t16.5 -58v-61h-342v61q0 35 16 57.5t33 35.5q8 6 14 14t6 29v135q0 12 -12 12h-377q-20 0 -34.5 13.5t-14.5 41.5zM244 530q-4 -12 8 -12h217q14 0 14 14v519v166q0 14 -4 10q-2 -2 -2 -6l-49 -158q-53 -147 -92 -264q-16 -49 -32.5 -97.5t-30 -86t-21.5 -61.5z" />
<glyph unicode="5" horiz-adv-x="813" d="M59 295v45l7 131h14q10 0 27.5 -1t48.5 -3q35 -2 56 -16.5t31.5 -34t13.5 -39t3 -29.5v-18v-27q0 -82 43 -109.5t100 -27.5q29 0 55.5 6t47 21.5t33 42t12.5 67.5v412q0 70 -40 105.5t-93 35.5t-97.5 -37t-44.5 -104v-10h-26h-51q-12 0 -33 3t-41.5 14t-33.5 31.5 t-13 57.5q0 25 3 76t6 113.5t6 130t6 128t5 104.5t5 60q2 47 28.5 80t69.5 33h289h51h94q41 0 63.5 -18.5t22.5 -59.5v-192h-68q-43 0 -66.5 19.5t-33.5 37.5q-6 12 -15 19.5t-32 7.5h-16h-166q-20 0 -25.5 -8.5t-5.5 -28.5q0 -8 -3 -50t-6 -95.5t-6 -107.5t-5 -85 q-2 -14 6 -13t12 5q33 29 84 46t98 17h2q70 0 122 -24.5t85 -67.5t49.5 -99.5t16.5 -119.5v-424q0 -80 -27 -138.5t-73 -96t-110.5 -57t-140.5 -19.5t-139 19.5t-108 57t-71 96t-26 138.5z" />
<glyph unicode="6" horiz-adv-x="811" d="M59 293v950q0 78 26 136.5t71 97.5t108.5 58t138.5 19q154 0 247 -76.5t93 -234.5v-4v-149h-86q-37 0 -58 14t-33.5 32.5t-16.5 37t-4 26.5q0 4 -1 10.5t-1 10.5v12q0 82 -41 109.5t-99 27.5q-57 0 -99 -27.5t-42 -109.5v-354q0 -8 5 -10.5t9 3.5q12 14 33 27.5t45.5 23 t49 14.5t47.5 5q143 0 222 -86t79 -246v-317q0 -78 -26 -136.5t-72 -97.5t-109.5 -58t-138.5 -19q-76 0 -139.5 19t-109.5 58t-72 97.5t-26 136.5zM262 303q0 -82 43 -109.5t101 -27.5q57 0 100 27.5t43 109.5v297q0 82 -43 121t-100 39t-100.5 -39t-43.5 -121v-297z" />
<glyph unicode="7" horiz-adv-x="806" d="M49 1327v25v6v100q0 41 24.5 59.5t61.5 18.5h574q20 0 34.5 -12.5t14.5 -34.5v-156q0 -16 -5 -28.5t-10 -16.5q-139 -201 -207.5 -469t-80.5 -608q2 -18 9 -27.5t17 -15.5q16 -10 30.5 -32.5t14.5 -59.5v-76h-71h-207h-66v76q0 35 15.5 57.5t31.5 34.5q14 12 21 25 q2 14 2 28.5t2 28.5l2 29q10 156 33.5 305t61.5 284.5t90.5 254t119.5 212.5q6 10 -1 13.5t-11 3.5h-250q-23 0 -37 -13.5t-14 -38.5v-86h-90q-35 0 -56.5 14.5t-33 33t-15.5 37t-4 28.5z" />
<glyph unicode="8" horiz-adv-x="798" d="M59 291v248q0 78 28 141t79 98q8 4 8 17.5t-8 19.5q-41 35 -68.5 89t-27.5 120v217q0 158 89 234.5t242 76.5q154 0 243 -76.5t89 -234.5v-217q0 -66 -28.5 -121t-69.5 -90q-8 -4 -8 -17.5t6 -17.5q51 -33 79.5 -97.5t28.5 -141.5v-248q0 -164 -91 -237.5t-249 -73.5 q-156 0 -249 74.5t-93 236.5zM262 301q0 -82 41 -109.5t98 -27.5q55 0 96.5 27.5t41.5 109.5v248q0 82 -41 120t-97 38q-57 0 -98 -38t-41 -120v-248zM270 1016q0 -82 37 -120t94 -38q55 0 92 38t37 120v215q0 82 -36.5 109.5t-92.5 27.5q-57 0 -94 -27.5t-37 -109.5v-215z " />
<glyph unicode="9" horiz-adv-x="768" d="M39 926v317q0 78 25.5 136.5t71.5 97.5t108.5 58t138.5 19t139.5 -19t109.5 -58t71.5 -97.5t25.5 -136.5v-950q0 -158 -96 -234.5t-248 -76.5q-145 0 -238.5 72.5t-99.5 219.5h-2v15v10v141l6 -2h84q37 0 58.5 -14t33 -32.5t15.5 -38t4 -27.5v-33q4 -74 45 -100.5 t94 -26.5q57 0 99 27.5t42 109.5v346q0 10 -6 13.5t-10 -3.5q-25 -29 -77 -47t-93 -18q-145 0 -223 86t-78 246zM242 934q0 -82 43 -121t98 -39q57 0 100 39t43 121v299q0 82 -43 109.5t-100 27.5q-55 0 -98 -27.5t-43 -109.5v-299z" />
<glyph unicode=":" horiz-adv-x="337" d="M66 266v4v125q0 23 26.5 27t73.5 4q98 0 98 -27v-129q0 -33 -98 -32q-100 0 -100 28zM66 866v4v125q0 23 26.5 27t73.5 4q98 0 98 -27v-129q0 -33 -98 -32q-100 0 -100 28z" />
<glyph unicode=";" horiz-adv-x="337" d="M70 291v123q0 18 30.5 24t75.5 6q47 0 65.5 -7t18.5 -19v-127v-41q0 -35 -4 -58.5t-15.5 -44t-31 -42t-49.5 -52.5q-18 -18 -24.5 -14t-18.5 14q-16 12 -15.5 19.5t21.5 27.5q63 61 71.5 110.5t-38.5 49.5t-66.5 7t-19.5 24zM70 846v2v127q0 18 25.5 24.5t72.5 6.5 q94 0 94 -27v-131q0 -35 -94 -35q-98 0 -98 33z" />
<glyph unicode="&#x3c;" horiz-adv-x="655" d="M49 612l4 4l420 420q4 4 8 0l109 -108q4 -4 0 -8l-303 -304q-4 -4 0 -8l303 -303q2 -2 0 -8l-109 -107q-4 -8 -8 0l-420 418z" />
<glyph unicode="=" horiz-adv-x="702" d="M49 416v153q0 6 6 6h592q4 0 4 -6v-153q0 -4 -4 -4h-592q-6 0 -6 4zM49 664v153q0 6 6 6h592q4 0 4 -6v-153q0 -6 -4 -7h-592q-6 0 -6 7z" />
<glyph unicode="&#x3e;" horiz-adv-x="653" d="M51 299q-2 6 0 8l303 303q4 4 0 8l-303 304q-4 4 0 8l109 108q4 4 8 0l420 -420l4 -4l-4 -4l-420 -417q-4 -8 -8 0z" />
<glyph unicode="?" horiz-adv-x="720" d="M49 1188v37v14q0 158 79.5 224.5t229.5 66.5q147 0 229.5 -77t82.5 -234v-232q0 -78 -39 -131t-87 -95t-87 -80t-39 -85v-248q0 -12 -4 -23.5t-27 -11.5h-135q-20 0 -26.5 11.5t-6.5 25.5v289v2q0 66 40 114t88 87t88 74.5t40 78.5v211q0 82 -31.5 117t-85.5 35 q-55 0 -87.5 -33t-32.5 -115v-131h-95q-37 0 -55 14.5t-27.5 33t-10.5 36t-1 25.5zM223 20v3v131q0 16 27 22t72 6q47 0 76.5 -6t29.5 -18v-135q0 -14 -29.5 -23.5t-76.5 -9.5t-73 7t-26 23z" />
<glyph unicode="@" horiz-adv-x="1482" d="M55 543q0 182 59.5 328.5t163 249t241.5 156.5t298 54q141 0 254 -30.5t192.5 -97t123 -169t43.5 -246.5q0 -135 -27 -226t-67 -150.5t-86 -91t-87 -47t-69.5 -17.5t-32.5 -2q-72 0 -125 12.5t-88 59.5q-20 -23 -51 -37q-27 -14 -67 -22.5t-93 -4.5q-72 6 -128 34t-90 78 t-42 124.5t16 175.5q41 166 123 240.5t207 78.5q47 2 84 -5t62.5 -16t38.5 -18l14 -8q8 14 16 23q23 29 74 28h155v-67q0 -35 -14 -56.5t-31 -33.5q-18 -10 -20 -29l-86 -328q-4 -27 17.5 -41t47.5 -14q61 0 96 33t50.5 85t18.5 118.5t3 132.5q0 106 -30.5 179t-90 119 t-144.5 66.5t-193 20.5q-119 0 -222.5 -50.5t-181.5 -134.5t-123 -197.5t-45 -238.5q0 -121 31 -204t86 -136t130 -76.5t165 -23.5q92 0 157.5 14.5t100.5 26.5q14 4 22.5 -1t10.5 -16q2 -10 7 -40.5t9 -53.5q4 -20 0 -26.5t-14 -10.5q-29 -14 -99.5 -33.5t-165.5 -19.5 q-143 0 -255.5 32t-189.5 101.5t-118 180t-41 268.5zM585.5 493.5q18.5 -55.5 110.5 -61.5q41 -2 64.5 6t36.5 19q14 12 18 28l82 297q-14 18 -37 31q-18 10 -46 16.5t-62 1.5q-66 -10 -96.5 -55t-59.5 -135q-29 -92 -10.5 -147.5z" />
<glyph unicode="A" horiz-adv-x="985" d="M39 0v53q0 35 15.5 62.5t31.5 38.5q10 8 18.5 17t12.5 26q57 315 104 563q20 106 39 207.5t34 181.5t24.5 129t9.5 51q2 16 2 29.5t-11 17.5q-51 20 -51 109v47h275q47 0 75.5 -27.5t32.5 -64.5q0 -8 10.5 -65.5t25.5 -146.5t34.5 -199.5t40.5 -225.5q47 -268 106 -606 q4 -16 12.5 -25.5t18.5 -17.5q16 -10 31.5 -36t15.5 -61v-57h-342v55q0 37 14.5 59.5t30.5 32.5q10 8 17.5 16.5t7.5 26.5q-4 39 -10 72q-4 29 -8.5 54.5t-4.5 35.5q-4 25 -16 33t-31 8h-233q-33 0 -37 -41q-2 -10 -3 -35.5t-5 -54.5q-4 -33 -9 -72q0 -18 4.5 -26t14.5 -17 q16 -10 30.5 -32.5t14.5 -59.5v-55h-342zM369 596v-5q0 -11 6 -19q8 -10 20 -9h193q14 1 22 11q6 8 6 17q0 5 -6 40q-6 33 -14 84t-18.5 115.5t-22.5 132.5l-61 356h-5l-61 -356q-12 -68 -22.5 -132.5t-18.5 -115.5t-13 -84t-5 -35z" />
<glyph unicode="B" horiz-adv-x="878" d="M39 0v61q0 41 11 63.5t32 33.5q10 4 18.5 15t8.5 30v1124q0 29 -25 43q-45 20 -45 109v53h414q174 0 249.5 -89t75.5 -241v-180q0 -63 -21.5 -112.5t-60.5 -84.5q-10 -10 -10 -22.5t14 -22.5q47 -35 73 -92t26 -131v-223q0 -152 -76 -243t-250 -91h-434zM311 197 q0 -29 29 -29h133q66 0 95.5 43t29.5 115v221q0 72 -29.5 115t-95.5 43h-133q-29 0 -29 -29v-479zM311 901q0 -27 27 -27h115q63 0 94 42t31 114v168q0 72 -31 115t-94 43h-113q-14 0 -21.5 -9.5t-7.5 -21.5v-424z" />
<glyph unicode="C" horiz-adv-x="831" d="M59 295v950q0 78 28 136.5t75 96.5t112.5 56t141.5 18t140.5 -18t112.5 -56t75.5 -96.5t27.5 -136.5v-153h-88q-51 0 -83 31.5t-32 80.5v29q0 82 -48 116.5t-105 34.5t-105.5 -34.5t-48.5 -116.5v-936q0 -63 45 -102t103 -39q29 0 57.5 10t51 29.5t36.5 45t14 56.5v35 q0 47 28 80.5t83 33.5h92v-172q0 -78 -28.5 -133t-78 -90t-114.5 -50t-141 -15t-140.5 18.5t-110.5 57t-73 97t-27 136.5z" />
<glyph unicode="D" horiz-adv-x="866" d="M39 0v55q0 45 12 68.5t33 34.5q25 14 25 43v1130q0 18 -8.5 29.5t-18.5 15.5q-20 10 -31.5 33t-11.5 64v59h440q88 0 149.5 -23.5t101.5 -66.5t58.5 -104.5t18.5 -137.5v-866q0 -152 -77 -243t-251 -91h-440zM309 197q0 -10 6.5 -19.5t16.5 -9.5h147q66 0 95.5 43 t29.5 115v878q0 72 -29.5 115t-95.5 43h-141q-14 0 -21.5 -9.5t-7.5 -19.5v-1136z" />
<glyph unicode="E" horiz-adv-x="811" d="M39 0v53q0 45 11 68.5t32 34.5q27 14 27 43v1132q0 18 -8.5 28.5t-18.5 16.5q-20 10 -31.5 33t-11.5 64v59h649q25 0 39 -14.5t14 -30.5v-217h-75q-43 0 -73 11t-30 46q0 12 -6 23.5t-22 11.5h-197q-10 0 -19.5 -9.5t-9.5 -21.5v-428q0 -29 31 -29h244q10 0 21 -7t11 -23 v-115q0 -29 -30 -29h-246q-31 0 -31 -28v-477q0 -29 25 -29h205q23 0 22 27q0 33 27.5 51t75.5 18h77v-211q0 -23 -15 -37t-38 -14h-127h-399h-123z" />
<glyph unicode="F" horiz-adv-x="780" d="M39 0v59q0 35 16.5 57.5t32.5 35.5q8 8 14.5 16t6.5 29v1134q0 33 -25 43q-20 10 -32.5 33t-12.5 70v55h649q16 0 34.5 -13.5t18.5 -37.5v-215h-67q-43 0 -72 16t-29 49q0 29 -47 29h-186q-12 0 -21.5 -8.5t-9.5 -22.5v-455q0 -18 7.5 -24t23.5 -6h248q29 0 28 -31v-108 q0 -29 -26 -29h-250q-12 0 -21.5 -8.5t-9.5 -22.5v-448q0 -20 6.5 -28.5t16.5 -16.5q16 -12 31.5 -35t15.5 -58v-59h-340z" />
<glyph unicode="G" horiz-adv-x="829" d="M59 293v950q0 78 26 136.5t72 96t110.5 56t140.5 18.5t141 -18.5t114.5 -56t78 -96t28.5 -136.5v-139h-90q-12 0 -31.5 6t-37 17.5t-31 27.5t-13.5 39v41q0 41 -14 68.5t-36.5 45t-51.5 25.5t-57 8q-57 0 -101.5 -32.5t-44.5 -114.5v-932q0 -82 44 -114.5t102 -32.5 q27 0 55.5 8t52 25.5t37.5 45t14 68.5v275q0 39 -32 49q-29 6 -44.5 28.5t-15.5 79.5v49h244q12 0 31.5 -9t19.5 -40v-725q0 -20 -25 -20h-18q-10 0 -15 5t-7 9q-20 35 -39 36t-35 -9q-20 -12 -50 -20.5t-64 -14.5t-67.5 -9t-64.5 -3q-145 0 -235.5 75.5t-90.5 233.5z" />
<glyph unicode="H" horiz-adv-x="964" d="M59 0v61q0 35 15.5 57.5t31.5 35.5q10 6 16.5 14t6.5 29v2v1136q0 20 -6 28.5t-17 16.5q-16 12 -31.5 35t-15.5 58v59h340v-59q0 -35 -16 -57.5t-33 -35.5q-8 -8 -14 -16t-6 -29v-422q0 -16 10 -23t20 -7h244q14 0 21.5 9t7.5 21v422q0 20 -5 28.5t-16 16.5 q-16 12 -32.5 35t-16.5 58v59h342v-59q0 -35 -16.5 -57.5t-32.5 -35.5q-10 -8 -15 -16t-5 -29v-1136v-2q0 -20 5 -28.5t15 -14.5q16 -12 32.5 -35t16.5 -58v-61h-342v61q0 35 16.5 57.5t32.5 35.5q10 6 15.5 14t5.5 29v487q0 29 -29 29h-244q-31 0 -30 -31v-479v-4v-2 q0 -20 6 -28.5t14 -14.5q16 -12 32.5 -35t16.5 -58v-61h-340z" />
<glyph unicode="I" horiz-adv-x="419" d="M39 0v61q0 35 14.5 56.5t34.5 36.5q10 6 15.5 14t5.5 27v4v1134q0 20 -5.5 28.5t-15.5 16.5q-16 12 -32.5 35t-16.5 57v60h342v-60q0 -35 -16.5 -57t-32.5 -35q-10 -8 -15.5 -16t-5.5 -29v-1134v-4q0 -18 6.5 -26.5t14.5 -14.5q16 -12 32.5 -35t16.5 -58v-61h-342z" />
<glyph unicode="J" horiz-adv-x="841" d="M59 295v154h88q35 0 57.5 -11.5t35 -29t16.5 -37t4 -33.5v-33q0 -82 48 -115.5t106 -33.5q55 0 97 33.5t42 115.5v1038q-2 16 -7 22.5t-14 12.5q-16 12 -32.5 35t-16.5 57v62h340v-62q0 -35 -15 -57t-32 -35q-10 -6 -15 -13t-5 -24v-48t-1 -119.5t-1 -167v-191.5v-520 q0 -78 -24.5 -136.5t-70 -96t-108 -56t-137.5 -18.5q-76 0 -140.5 18.5t-112.5 56t-75 96t-27 136.5z" />
<glyph unicode="K" horiz-adv-x="903" d="M39 0v59q0 35 16.5 57.5t32.5 35.5q8 8 13 15t8 26v1144q-2 16 -7.5 24.5t-13.5 14.5q-16 12 -32.5 35t-16.5 57v62h338v-62q0 -35 -16.5 -57t-32.5 -35q-10 -6 -15.5 -14t-5.5 -27v-385l273 492q10 23 28 43q14 16 37 30.5t55 14.5h129v-80q0 -45 -23.5 -67.5 t-45.5 -32.5q-16 -8 -23.5 -20.5t-17.5 -29.5q-4 -6 -21.5 -37.5t-42 -77.5t-53.5 -100.5t-55.5 -104.5t-47 -90t-28.5 -56q-4 -10 -6 -18.5t4 -27.5q0 -4 13.5 -29.5t34 -66.5t47 -92t52.5 -104q63 -125 144 -281q10 -16 20 -24.5t33 -16.5q23 -10 37 -29.5t14 -66.5v-78 h-41h-94q-25 0 -42 3t-30.5 11.5t-26 24.5t-26.5 41q-6 12 -21.5 41t-35 68.5t-42 84.5t-44.5 93q-53 109 -119 239l-33 -63v-350q0 -16 5 -24.5t16 -16.5q16 -12 32.5 -35t16.5 -58v-59h-340z" />
<glyph unicode="L" horiz-adv-x="790" d="M39 0v61q0 45 11 69t32 34q10 4 19.5 14t9.5 25v1130q0 23 -6.5 31t-16.5 14q-16 12 -32.5 35t-16.5 57v62h342v-62q0 -35 -16.5 -57t-32.5 -35q-10 -6 -15.5 -14t-5.5 -31l2 -1126q0 -16 6.5 -28.5t20.5 -12.5h180q14 0 21.5 11t7.5 24q0 47 30.5 61t75.5 14h86v-223 q0 -25 -16 -39t-33 -14h-41h-612z" />
<glyph unicode="M" horiz-adv-x="1337" d="M39 0v61q0 35 16.5 57.5t32.5 35.5q10 6 16.5 14t6.5 29v1161q-20 6 -35 20q-14 12 -24.5 34t-10.5 56v64h213q12 0 25.5 -8t19.5 -23q14 -35 45 -99.5t70 -142t81 -158.5t77.5 -148.5t59 -112.5t27.5 -49q4 -10 9.5 -8.5t9.5 8.5q0 2 17.5 32.5t43 81.5t59 114.5 t68.5 129.5l185 352q8 18 20 24.5t29 6.5h196v-64q0 -35 -11 -56t-23 -34q-16 -14 -35 -20v-1153q0 -20 6 -28.5t16 -14.5q16 -12 32.5 -35t16.5 -61v-66h-335v68q0 35 16 57t33 35q10 6 16 14t6 29v837q0 4 -5 7.5t-9 -7.5q-76 -135 -135 -245q-27 -47 -51.5 -93.5t-45 -85 t-35 -65.5t-16.5 -33q-6 -14 -25.5 -21.5t-43 -7.5t-43 7.5t-25.5 19.5q-4 6 -17.5 32.5t-34 64.5t-46 85t-49.5 95q-59 113 -134 247q-2 4 -5 4t-3 -8v-837v-2q0 -20 5.5 -28.5t15.5 -14.5q16 -12 32.5 -35t16.5 -58v-61h-342z" />
<glyph unicode="N" horiz-adv-x="917" d="M39 0v61q0 35 16.5 57.5t32.5 35.5q8 6 14.5 14t6.5 29v1155q-20 8 -35 22q-14 12 -24.5 34t-10.5 56v68h231q25 0 37 -11.5t19 -31.5q0 -4 20.5 -69.5t51 -163t66.5 -213t67.5 -221t56 -185.5t33.5 -107q2 -4 5 -8t3 2v811q0 20 -6.5 28.5t-14.5 16.5q-16 12 -32.5 35 t-16.5 58v59h320v-59q0 -35 -16.5 -57.5t-33.5 -35.5q-8 -8 -13 -16t-7 -27v-1284q0 -20 -12.5 -36.5t-36.5 -16.5h-119q-27 0 -38 22.5t-21 57.5q-4 10 -27 80.5t-54.5 170t-67.5 212t-66.5 209t-51 161t-20.5 66.5q-2 4 -4 6t-2 -10v-776q0 -23 6 -31t16 -14 q16 -12 31.5 -35t15.5 -58v-61h-319z" />
<glyph unicode="O" horiz-adv-x="837" d="M59 291v950q0 78 28 136.5t77 96t114.5 56t141.5 18.5t141.5 -18.5t113.5 -56t75.5 -96t27.5 -136.5v-950q0 -78 -27.5 -136.5t-75.5 -97.5t-113.5 -57t-141.5 -18t-141.5 18t-114.5 57t-77 97.5t-28 136.5zM260 299q0 -41 14.5 -68.5t37 -45t51 -25.5t57.5 -8t56.5 8 t50 25.5t37 45t14.5 68.5v934q0 41 -14.5 68.5t-37 45t-50 25.5t-56.5 8t-57.5 -8t-51 -25.5t-37 -45t-14.5 -68.5v-934z" />
<glyph unicode="P" horiz-adv-x="854" d="M39 1481v51h440q174 0 250 -90t76 -244v-223q0 -154 -76 -241t-250 -87h-133q-29 0 -29 -24v-426q0 -20 5.5 -28.5t15.5 -16.5q16 -12 32.5 -35t16.5 -58v-59h-342v59q0 35 16.5 57.5t32.5 35.5q10 8 15.5 16t5.5 29v1136q0 31 -27 45q-20 12 -34.5 37t-14.5 66zM317 848 q0 -29 27 -29h135q63 0 93 43t30 115v225q0 72 -29.5 115t-93.5 43h-129q-12 0 -22.5 -7t-10.5 -22v-483z" />
<glyph unicode="Q" horiz-adv-x="851" d="M59 291v950q0 78 27 136.5t75 96t112.5 56t140.5 18.5t141.5 -18.5t112.5 -56t74.5 -96t27.5 -136.5v-950q0 -84 -24.5 -135.5t-57.5 -79.5q-4 -4 -7 -13.5t7 -15.5q4 -2 8 -3t21 -9q6 -2 19.5 -9.5t25.5 -18.5t21.5 -27.5t9.5 -38.5v-88q-66 0 -121.5 12t-98.5 30.5 t-72.5 38t-41.5 31.5q-8 8 -15.5 12.5t-29.5 4.5q-76 0 -140.5 18t-112.5 57t-75 97.5t-27 136.5zM260 303q0 -41 13.5 -69.5t36 -47t49 -26.5t55.5 -8q57 0 105 34.5t48 116.5v924q0 82 -48 117.5t-105 35.5q-55 0 -104.5 -35.5t-49.5 -117.5v-924z" />
<glyph unicode="R" horiz-adv-x="901" d="M39 0v59q0 35 16.5 57.5t32.5 35.5q8 8 14.5 16t6.5 29v1138q0 16 -6.5 25.5t-14.5 13.5q-16 10 -31.5 33t-15.5 66v59h422q88 0 149.5 -25.5t101.5 -70.5t58.5 -107.5t18.5 -138.5v-211q0 -66 -27 -120t-70 -89q-18 -18 4 -41q47 -35 70 -96.5t23 -136.5v-301 q0 -20 7 -25.5t17 -11.5q16 -10 31.5 -25.5t15.5 -52.5v-80h-170q-53 0 -78.5 27.5t-25.5 72.5v402q0 72 -30 111.5t-95 39.5h-127q-27 0 -27 -28v-428q0 -20 6.5 -28.5t14.5 -16.5q16 -12 32.5 -35t16.5 -58v-59h-340zM309 844q0 -10 8.5 -16.5t16.5 -6.5h129q66 0 95.5 43 t29.5 115v225q0 72 -30 114t-95 42h-121q-33 0 -33 -29v-487z" />
<glyph unicode="S" horiz-adv-x="864" d="M59 291v153h99q55 0 82.5 -25.5t27.5 -72.5v-88q0 -27 15.5 -47.5t39 -34.5t52 -22.5t55.5 -8.5t55.5 9.5t53 25t40 37t15.5 47.5v217q0 68 -38 116t-95.5 87t-124 77t-123.5 83t-95 105.5t-38 146.5v145q0 82 26.5 140.5t73.5 96.5t110.5 55t139.5 17t140.5 -19.5 t112.5 -57t74.5 -96t26.5 -136.5v-151h-92q-51 0 -86 32.5t-35 81.5v76q0 25 -14 43t-35.5 29.5t-47 16.5t-46.5 5q-23 0 -47.5 -6t-47 -18.5t-36.5 -29.5t-14 -40v-203q0 -41 38.5 -77.5t96 -74.5t126 -80t126 -93.5t96.5 -115t39 -144.5v-201q0 -78 -31 -136.5t-82 -96.5 t-118.5 -56t-143.5 -18t-143.5 18t-117.5 56t-80 96.5t-30 136.5z" />
<glyph unicode="T" horiz-adv-x="935" d="M39 1266v125v59q0 47 25.5 66.5t78.5 19.5h668q49 0 67.5 -21.5t18.5 -72.5v-64v-112h-111q-29 0 -45 19.5t-16 51.5q0 27 -23 27h-100q-12 0 -21.5 -8t-9.5 -27v-1132q0 -20 6.5 -28.5t16.5 -16.5q16 -12 31.5 -35t15.5 -58v-59h-340v59q0 35 16.5 57.5t32.5 35.5 q8 8 14.5 16t6.5 29v1138q0 14 -10.5 21.5t-20.5 7.5h-90q-8 0 -19.5 -6t-11.5 -23q0 -35 -18.5 -52t-67.5 -17h-94z" />
<glyph unicode="U" horiz-adv-x="927" d="M39 1470v62h348v-62q0 -35 -19.5 -57t-35.5 -35q-10 -6 -15.5 -14t-5.5 -29v-1024q0 -80 50.5 -117.5t107.5 -37.5q55 0 104.5 37.5t49.5 117.5v1022v2v6q0 16 -6.5 23.5t-14.5 13.5q-16 12 -32.5 35t-16.5 57v62h336v-62q0 -35 -13.5 -57t-29.5 -35q-8 -6 -13.5 -13 t-7.5 -24v-4v-1042q0 -78 -27.5 -136.5t-75.5 -96t-112.5 -56t-140.5 -18.5t-141.5 18.5t-114.5 56t-76.5 96t-27.5 136.5v1038v2q0 20 -5.5 28.5t-15.5 14.5q-16 12 -32.5 35t-16.5 57z" />
<glyph unicode="V" horiz-adv-x="964" d="M39 1468v62h326v-62q0 -37 -13.5 -58t-29.5 -32q-10 -8 -15.5 -16t-1.5 -29q49 -319 88 -569q16 -106 32.5 -208.5t30 -182.5t21.5 -129l8 -49q2 0 10.5 49t20.5 129t26.5 182t30.5 209q37 250 80 569q0 20 -4 28.5t-14 16.5q-14 10 -28.5 32t-14.5 58v62h334v-62 q0 -35 -14.5 -57t-30.5 -33q-10 -8 -18.5 -18t-12.5 -27q-53 -354 -94 -635q-18 -121 -36 -235.5t-31 -205.5t-22.5 -148.5t-9.5 -61.5q-2 -16 -13 -31.5t-32 -15.5h-221q-51 0 -57 51q-10 59 -30.5 177t-45.5 258.5t-51.5 288t-48 270t-35.5 202.5t-14 86q-4 20 -9.5 28.5 t-15.5 16.5q-16 10 -30.5 33t-14.5 57z" />
<glyph unicode="W" horiz-adv-x="1542" d="M39 1470v62h334v-62q0 -37 -14.5 -58t-28.5 -32q-10 -8 -14.5 -16t-4.5 -29q35 -319 64 -569q12 -106 24.5 -208.5t21.5 -182.5t16 -129t9 -49l12 75q13 76 32.5 196t43 267.5t48 289.5t46 264t38.5 190q6 27 39.5 38t64.5 11q35 0 68.5 -14.5t38.5 -36.5 q16 -72 37.5 -194t46 -264t48 -288.5t43 -265.5t32.5 -193l12 -75q2 0 8 49t16 129t22.5 182t24.5 209q29 250 64 569q0 20 -4 28.5t-15 16.5q-14 10 -28.5 32t-14.5 58v62h334v-62q0 -35 -14 -57t-31 -33q-10 -8 -18 -18t-13 -27q-41 -354 -73 -635q-14 -121 -27.5 -235.5 t-25 -205.5t-18.5 -148.5t-7 -61.5q-2 -16 -13.5 -31.5t-31.5 -15.5h-230q-23 0 -35 12.5t-22 38.5l-170 998l-174 -998q-10 -27 -22.5 -39t-34.5 -12h-232q-20 0 -31.5 15.5t-13.5 31.5q0 4 -7 61.5t-18.5 148.5t-24.5 206t-28 235q-33 281 -73 635q-4 16 -12.5 26.5 t-18.5 18.5q-16 10 -30.5 33t-14.5 57z" />
<glyph unicode="X" horiz-adv-x="901" d="M39 0v63q0 37 14.5 58.5t30.5 32.5q6 4 18.5 11t22.5 28l194 548q0 6 3 13q0 4 1 8t1 8q0 2 -1 7t-1 9q-2 6 -3 11l-182 532q-10 16 -14 26.5t-25 18.5q-51 20 -51 109v47h41h115q47 0 64.5 -24.5t31.5 -71.5q0 -6 7 -28t16.5 -52.5t21.5 -66.5t25 -73q29 -86 63 -192 l4 -16q4 -16 10 -17q6 0 11 17q2 8 4 18l104 317q0 8 2 18.5t-8 18.5q-14 10 -29.5 33t-15.5 57v62h328v-62q0 -37 -14.5 -58t-30.5 -32q-6 -4 -17.5 -12t-17.5 -31l-197 -536q-2 -4 -2 -11q-2 -6 -2 -14v-12q0 -4 2 -8l217 -551q4 -16 13 -26.5t32 -18.5q23 -10 30 -37 t7 -72v-49h-59h-80q-27 0 -43 3t-27.5 14.5t-19.5 30t-21 48.5q-2 2 -13 37t-28.5 85t-38 107.5t-38 106.5t-29.5 82l-12 33q0 6 -2 14q-4 16 -9 17q-2 0 -6 -15q-2 -6 -2 -12q-33 -100 -55 -180l-53 -181q-2 -4 -3 -15t11 -21q16 -12 31.5 -34t15.5 -57v-63h-342z" />
<glyph unicode="Y" horiz-adv-x="917" d="M39 1468v62h332v-68q0 -37 -13.5 -55t-29.5 -29q-10 -8 -20.5 -16t-6.5 -25q0 -4 7 -28.5t17.5 -61.5t23.5 -82l26 -90q31 -109 67 -244h13q43 135 77 246q14 45 28.5 90t26 82t19.5 60.5t8 27.5q4 16 -5 24.5t-19 16.5q-16 10 -30.5 32t-14.5 58v62h334v-62 q0 -35 -14.5 -57t-30.5 -33q-8 -6 -20.5 -14t-16.5 -25q-2 -4 -13.5 -38.5t-28 -88t-38 -121t-43.5 -137.5q-53 -164 -119 -368v-387v-2q0 -20 5 -28.5t15 -14.5q16 -12 33 -35t17 -58v-61h-342v61q0 35 16 57.5t33 35.5q10 6 15 14t5 27v391q-66 209 -119 375 q-23 70 -44 138t-37.5 121.5t-27.5 87t-11 38.5q-4 12 -13.5 20t-13.5 12q-16 10 -31.5 33t-15.5 57z" />
<glyph unicode="Z" horiz-adv-x="759" d="M39 51v88q0 23 2 29t4 10q119 317 215 567q41 106 80 210t69.5 186t49 133t20.5 55q4 12 -1 21.5t-23 9.5h-197q-20 0 -24.5 -6t-4.5 -23v-69h-67q-53 0 -83 31.5t-30 78.5v111q0 49 47 49h133h414q25 0 41 -13.5t16 -39.5v-93q0 -10 -1 -17t-3 -13q-2 -8 -4 -13 q-119 -315 -215 -563q-41 -106 -80 -208.5t-69.5 -183.5t-50 -132t-19.5 -53q-4 -14 0 -25.5t21 -11.5h262q0 43 29.5 72.5t78.5 29.5h72v-219q0 -51 -49 -51h-580q-25 0 -39 16.5t-14 36.5z" />
<glyph unicode="[" horiz-adv-x="546" d="M49 -27v1590v10v174q0 6 4 6h195h12h234q4 0 4 -6v-174q0 -6 -4 -6h-234q-6 0 -6 -4v-1590q0 -6 6 -6h234q4 0 4 -4v-174q0 -6 -4 -6h-234h-12h-195q-4 0 -4 6v174v10z" />
<glyph unicode="\" horiz-adv-x="528" d="M53 1524q0 6 4 6h179q4 0 8 -6l237 -1516q6 -6 -4 -6h-168q-8 0 -8 6z" />
<glyph unicode="]" horiz-adv-x="546" d="M49 -41q0 6 4 6h234q6 0 6 4v1590q0 6 -6 6h-234q-4 0 -4 4v174q0 6 4 6h234h12h195q4 0 4 -6v-174v-10v-1590v-10v-174q0 -6 -4 -6h-195h-12h-234q-4 0 -4 6v174z" />
<glyph unicode="^" horiz-adv-x="542" d="M49 1303v6l219 217q2 2 2 4l4 -4l218 -217q2 -4 0 -6l-74 -76h-6l-138 133q-4 2 -6 0l-137 -133h-6z" />
<glyph unicode="_" horiz-adv-x="948" d="M49 6v154q0 6 6 6h838q6 0 6 -6v-154q0 -6 -6 -6h-838q-6 0 -6 6z" />
<glyph unicode="`" horiz-adv-x="415" d="M74 1360q-6 6 0 6l96 78q0 6 6 0l174 -254q6 0 0 -6l-55 -49q-4 0 -6 2z" />
<glyph unicode="a" horiz-adv-x="821" d="M59 330v6q0 82 22.5 141.5t62.5 97t93.5 58t114.5 26.5q49 4 81 10.5t50 10.5q23 6 31 10v15q0 33 -3 62.5t-15.5 52t-37 34.5t-67.5 12t-67.5 -10t-36 -25.5t-14.5 -34t-3 -36.5v2q0 -23 -13 -34t-34.5 -15t-49.5 -5t-54 -1h-43v73q0 51 16.5 97.5t53 82t96 57 t147.5 21.5t148.5 -20.5t98.5 -58t54.5 -92t16.5 -124.5v-528q0 -16 1 -28.5t9 -18.5q16 -10 35.5 -40t19.5 -69v-59h-194q-25 0 -40.5 14.5t-19.5 30.5q-18 -16 -43 -27q-23 -10 -52.5 -18t-68.5 -8q-158 0 -226.5 89t-68.5 249zM244 311q0 -74 38.5 -117.5t106.5 -43.5 q37 0 61.5 11t38.5 27q16 16 27 39v299q-12 -4 -33 -8q-16 -4 -41.5 -8t-62.5 -8q-59 -6 -97 -54.5t-38 -117.5v-19z" />
<glyph unicode="b" horiz-adv-x="845" d="M39 0v61q0 39 16.5 61.5t32.5 33.5q10 8 15.5 16t5.5 29v1128q0 29 -23 43q-16 12 -31.5 33.5t-15.5 58.5v68h172q39 0 66.5 -19.5t27.5 -85.5v-448q20 14 47 27q23 10 56.5 19t76.5 9q152 0 216.5 -90t64.5 -248v-370q0 -158 -71.5 -246t-223.5 -88q-41 0 -72.5 7 t-52.5 17q-25 10 -41 25q-4 -12 -12 -21q-8 -8 -21.5 -14t-33.5 -6h-199zM305 205q14 -18 37 -31q18 -10 45 -19.5t64 -9.5q119 0 118 158v404q-4 80 -39.5 118.5t-93.5 38.5q-27 0 -50.5 -7t-39.5 -17q-23 -10 -39 -25q-2 -154 -2 -280v-330z" />
<glyph unicode="c" horiz-adv-x="747" d="M59 299v426q0 158 81 233.5t235 75.5q74 0 132 -21.5t98 -58t61.5 -86t21.5 -104.5v-105h-84q-110 0 -110 83q0 53 -32 91.5t-87 38.5q-57 0 -89 -37.5t-32 -103.5v-436q0 -82 31.5 -111.5t89.5 -29.5q55 0 87 32.5t32 104.5v2q0 96 110 96h84v-119q0 -135 -83 -206.5 t-230 -71.5q-154 0 -235 75.5t-81 231.5z" />
<glyph unicode="d" horiz-adv-x="823" d="M59 326v370q0 158 63.5 248t215.5 90q43 0 77 -9t56 -19q27 -12 47 -27v352q0 29 -22 43q-16 12 -31.5 34t-15.5 58v68h143q70 0 96.5 -28.5t26.5 -86.5v-1218q0 -20 6 -28.5t16 -16.5q14 -10 30.5 -33t16.5 -62v-61h-219q-14 0 -22 6t-15 14q-8 8 -10 21 q-14 -14 -37 -25q-20 -10 -52 -16t-77 -6q-152 0 -222.5 87t-70.5 245zM254 315q0 -82 31.5 -119.5t87.5 -37.5q35 0 62.5 10t46 22.5t27.5 23.5l9 11v578q-18 16 -39 31q-18 10 -40.5 20t-51.5 10q-57 0 -95 -36.5t-38 -120.5v-392z" />
<glyph unicode="e" horiz-adv-x="768" d="M59 297v405q0 158 86 244t240 86q152 0 238 -86t86 -244v-131q0 -102 -136 -102h-319v-186q0 -82 40 -106.5t97 -24.5q55 0 90 30q33 28 33 71v5v8q0 47 27.5 81t83.5 34h84v-137q0 -133 -87 -193.5t-237 -60.5q-154 0 -240 75.5t-86 231.5zM254 608h233h27v105 q0 80 -37 118.5t-92 38.5q-57 0 -94 -38.5t-37 -118.5v-105z" />
<glyph unicode="f" horiz-adv-x="534" d="M39 848v59q0 41 24.5 79t96.5 38v246v49q0 51 21.5 97t62.5 77t99 41q21 4 44 4q41 0 90 -12q4 0 11.5 -6.5t7.5 -14.5v-127q0 -12 -6.5 -16t-10.5 -2q-24 6 -44 6q-31 0 -50 -16q-31 -25 -31 -72v-70v-184h119v-63q0 -49 -29.5 -81t-89.5 -32v-647q0 -20 6.5 -28.5 t16.5 -16.5q14 -10 29.5 -33t15.5 -62v-59h-332v61q0 39 15.5 61.5t31.5 33.5q10 8 16.5 16t6.5 29v645h-121z" />
<glyph unicode="g" horiz-adv-x="825" d="M59 -141h84q111 0 111 -95v-24q0 -51 29.5 -80t93.5 -29q57 0 100 28t43 110v274q-35 -27 -69.5 -42t-96.5 -15q-152 0 -222.5 94t-70.5 252v370q0 158 63.5 243t215.5 85q78 0 125 -20.5t55 -30.5q2 12 8 22q4 8 13.5 15.5t23.5 7.5h221v-63q0 -39 -16 -61.5t-33 -35.5 q-10 -6 -15 -14t-5 -29v-1042q0 -158 -88 -233.5t-242 -75.5q-74 0 -134 21.5t-103.5 58t-67 86t-23.5 104.5v119zM256 295q0 -72 28.5 -111t90.5 -39q39 0 65.5 9.5t44.5 19.5q20 12 35 31v24v582q-14 16 -33 29q-16 10 -39.5 19t-58.5 9q-57 0 -95 -36.5t-38 -104.5v-432z " />
<glyph unicode="h" horiz-adv-x="866" d="M39 0v61q0 39 15.5 61.5t31.5 33.5q10 8 16.5 16t6.5 29v1132q0 29 -25 43q-16 12 -30.5 34t-14.5 58v68h223q41 0 41 -49v-516q20 16 47 30q23 10 56.5 20.5t76.5 10.5q152 0 216.5 -87t64.5 -243v-505q0 -18 9.5 -26.5t19.5 -16.5q14 -10 29.5 -33t15.5 -62v-59h-183 q-86 0 -86 127v586q-6 80 -41.5 117.5t-91.5 37.5q-35 0 -59.5 -8t-40.5 -18q-20 -12 -33 -27v-616q0 -20 6 -28.5t17 -16.5q14 -10 29.5 -33t15.5 -62v-59h-332z" />
<glyph unicode="i" horiz-adv-x="413" d="M39 0v59q0 39 15.5 62.5t31.5 34.5q8 6 14 13t9 21v639q-2 23 -25 37q-14 10 -29.5 33t-15.5 57v70h217q47 0 47 -39v-790q0 -18 6.5 -27.5t16.5 -15.5q16 -10 31.5 -34t15.5 -63l2 -57h-336zM90 1257q0 45 31 76t76 31q43 0 74.5 -30.5t31.5 -76.5q0 -43 -31.5 -74.5 t-74.5 -31.5q-45 0 -76 31.5t-31 74.5z" />
<glyph unicode="j" horiz-adv-x="417" d="M49 -354q0 10 5 14t9 8q27 16 42.5 40t15.5 75v1044q-2 25 -23 37q-16 10 -30.5 33t-14.5 57v70h219q25 0 35 -9t10 -38v-1184q0 -133 -62 -214t-173 -105q-7 -1 -14 -1h-8q-11 1 -11 13v160zM90 1257q0 45 31 76t76 31q43 0 74.5 -30.5t31.5 -76.5q0 -43 -31.5 -74.5 t-74.5 -31.5q-45 0 -76 31.5t-31 74.5z" />
<glyph unicode="k" horiz-adv-x="790" d="M29 1460v70h213q51 0 51 -47v-764l209 270q18 25 35.5 31t68.5 6h58h47v-47q0 -88 -52 -109q-14 -6 -25 -15t-22 -26l-184 -247l16 -27q17 -27 40.5 -68t52 -89t53 -91t43 -74.5t22.5 -37.5q14 -20 22.5 -26.5t22.5 -10.5q51 -20 52 -109v-47h-47h-97q-39 0 -61.5 19.5 t-52.5 72.5q-55 92 -97 164q-18 31 -34.5 60.5t-31 52t-21.5 37.5l-7 14l-10 -12v-211q0 -18 6 -27.5t16 -15.5q14 -10 26.5 -34t12.5 -63v-57h-319v59q0 39 12 62.5t29 34.5q10 6 16 14t6 29v1124q0 16 -7 26.5t-17 18.5q-16 10 -30.5 32.5t-14.5 57.5z" />
<glyph unicode="l" horiz-adv-x="411" d="M39 0v59q0 39 15.5 62.5t31.5 34.5q8 6 14 12t9 22v1149q-2 23 -25 37q-14 10 -29.5 33t-15.5 57v70h213q51 0 51 -51v-1288q0 -18 6.5 -27.5t16.5 -15.5q16 -10 31.5 -34t15.5 -63v-57h-334z" />
<glyph unicode="m" horiz-adv-x="1372" d="M39 0v61q0 39 15.5 61.5t31.5 33.5q10 8 16.5 16t6.5 31v604q0 16 -10.5 27.5t-21.5 22.5t-21.5 23.5t-10.5 32.5v109h211q16 0 25.5 -7t13.5 -16q6 -8 8 -20q23 14 53 27q27 10 63 18t79 8q158 0 225 -86q29 23 65 43q33 16 79 29.5t110 13.5q154 0 221.5 -79t67.5 -236 v-520q0 -18 5 -26.5t15 -16.5q16 -10 31.5 -33t15.5 -62v-59h-164q-51 0 -75.5 33t-24.5 90v590q0 78 -38 114.5t-95 36.5q-33 0 -60.5 -8t-48.5 -18q-23 -10 -43 -25v-616q0 -18 6.5 -26.5t14.5 -16.5q16 -10 31.5 -33t15.5 -62v-59h-170q-33 0 -62.5 36t-29.5 79v538v74 q0 37 -14.5 63.5t-36 43t-49 23.5t-54.5 7t-50.5 -8t-41.5 -18.5t-30 -19.5l-11 -9v-610q0 -20 6 -28.5t17 -16.5q14 -10 29.5 -33t15.5 -62v-59h-332z" />
<glyph unicode="n" horiz-adv-x="870" d="M39 0v61q0 39 15.5 61.5t31.5 33.5q10 8 16.5 16t6.5 31v626q0 12 -7.5 20.5t-17.5 14.5q-14 10 -29.5 33t-15.5 57v70h223q16 0 23.5 -7t11.5 -16q4 -8 6 -20q20 14 47 25q23 10 56.5 18t76.5 8q154 0 217.5 -82t63.5 -239v-514q0 -18 6 -26.5t16 -14.5q14 -12 29.5 -35 t15.5 -62v-59h-169q-53 0 -73 38t-20 91v584q0 84 -38.5 116.5t-94.5 32.5q-35 0 -59.5 -9t-40.5 -19q-20 -12 -33 -27v-608q0 -20 6 -28.5t17 -14.5q16 -12 31.5 -35t15.5 -62v-59h-334z" />
<glyph unicode="o" horiz-adv-x="768" d="M59 307v414q0 158 86 234.5t240 76.5q74 0 133.5 -21.5t102.5 -59.5t65.5 -88t22.5 -105v-482q0 -133 -88.5 -209.5t-235.5 -76.5q-154 0 -240 80t-86 237zM254 297q0 -80 37 -111.5t94 -31.5q55 0 92 34.5t37 104.5v428q0 88 -39 118.5t-94 30.5q-57 0 -92 -29.5 t-35 -111.5v-432z" />
<glyph unicode="p" horiz-adv-x="843" d="M39 -446q0 35 14.5 57t30.5 33q10 8 17.5 17t7.5 26v1136q0 18 -6.5 27.5t-16.5 15.5q-16 10 -31.5 34t-15.5 63v61h225q14 0 22.5 -7t12.5 -16q4 -10 4 -22q10 10 56 31.5t124 21.5q154 0 217.5 -80t63.5 -237v-383q0 -158 -70.5 -249t-224.5 -91q-59 0 -95 14t-71 41 v-364q0 -20 6 -28.5t17 -14.5q16 -12 31.5 -35t15.5 -62v-59h-334v70zM303 223q12 -18 35 -30q18 -12 46 -21.5t65 -9.5q57 0 88.5 38t31.5 119v400q-4 82 -40.5 123t-92.5 41q-29 0 -52.5 -8.5t-41.5 -18.5q-23 -12 -39 -27v-606z" />
<glyph unicode="q" horiz-adv-x="823" d="M59 330v379q0 158 64.5 241.5t216.5 83.5q78 0 124 -21.5t56 -31.5q0 12 6 20q4 8 15.5 15.5t31.5 7.5h211v-63q0 -39 -15 -63t-32 -34q-10 -6 -16 -14t-6 -29v-1136q0 -16 7 -26.5t17 -18.5q16 -10 30.5 -33t14.5 -58v-69h-333v59q0 39 15 61.5t32 34.5q10 6 16 14.5 t6 28.5v367q-35 -27 -69.5 -41t-96.5 -14q-154 0 -224.5 91t-70.5 249zM254 313q0 -82 31.5 -119.5t89.5 -37.5q33 0 60.5 10t45.5 22q23 14 39 33v602q-14 14 -33 25q-16 10 -39.5 17t-58.5 7q-57 0 -93 -40.5t-42 -122.5v-396z" />
<glyph unicode="r" horiz-adv-x="643" d="M39 0v59q0 39 16.5 62.5t32.5 34.5q10 6 15.5 15t5.5 30v626q0 20 -23 35q-16 10 -31.5 33t-15.5 57v70h217q49 0 49 -45v-27q27 20 57 37q27 14 59 26.5t66 16.5q12 1 24 1q31 0 64 -7q10 -2 24.5 -12.5t14.5 -32.5v-115q0 -20 -15 -23t-32 1q-29 7 -58 7q-19 0 -38 -3 q-47 -8 -84 -28.5t-59.5 -50.5t-22.5 -62v-508q0 -18 5 -27.5t16 -15.5q16 -10 31.5 -34t15.5 -63l-2 -57h-332z" />
<glyph unicode="s" horiz-adv-x="770" d="M59 254v129h93q59 0 82.5 -18.5t23.5 -77.5v-4q0 -53 24.5 -90t102.5 -37t103.5 36.5t25.5 92.5v20q0 33 -31.5 58.5t-81 51t-104.5 54.5t-104.5 67.5t-81 91t-31.5 126.5v49q0 115 83 172t208 57q90 0 152.5 -20.5t101.5 -56t56 -85t17 -106.5v-100h-77q-55 0 -89 13 t-34 79q0 41 -29 78.5t-88 37.5q-33 0 -53.5 -11t-32.5 -27.5t-16.5 -36t-4.5 -35.5v2q0 -45 33 -77t81 -58.5t104.5 -53t104.5 -60.5t81 -78t33 -107v-54q0 -141 -85 -212.5t-231 -71.5q-150 0 -243 64.5t-93 197.5z" />
<glyph unicode="t" horiz-adv-x="550" d="M39 852v49q0 66 26.5 96.5t92.5 30.5v250v8q0 68 30.5 104.5t67.5 53.5q43 20 98 22v-438h127v-41q0 -57 -27.5 -96t-99.5 -39v-614q0 -44 32 -68q23 -17 59 -17q15 0 32 3q10 2 22.5 -3.5t12.5 -23.5v-76q0 -27 -9 -36t-16 -11q-48 -12 -89 -12q-23 0 -45 4 q-60 10 -104 39t-67.5 73t-23.5 95v647h-119z" />
<glyph unicode="u" horiz-adv-x="856" d="M39 956v68h190q33 0 49.5 -15.5t16.5 -54.5v-657q0 -82 38 -120t95 -38q37 0 61.5 9.5t39 19.5t20.5 20l6 11v622q0 16 -7 26.5t-18 16.5q-16 12 -27 34t-11 58v68h192q35 0 50.5 -19.5t15.5 -41.5v-689v207v-14v-270q0 -18 5 -26.5t15 -14.5q16 -12 31.5 -35t15.5 -62 v-59h-172q-37 0 -49 9t-23 30q-31 -29 -69.5 -41t-77.5 -12q-152 0 -239 80.5t-87 238.5v516q0 16 -7 26.5t-17 16.5q-16 12 -26.5 34t-10.5 58z" />
<glyph unicode="v" horiz-adv-x="780" d="M39 954v70h174q33 0 46 -9t20 -48q0 -4 6 -40t14 -93.5t19.5 -129t21.5 -145.5q25 -174 57 -395q31 211 54 379q10 72 20 140.5t18.5 123.5t13.5 91t7 42q6 25 9 40t8 25.5t17.5 14.5t37.5 4h159v-59q0 -39 -15 -62.5t-30 -34.5q-4 -2 -12 -51t-20.5 -125t-26.5 -168 t-27.5 -181t-27 -165t-21.5 -117q-6 -29 -18.5 -45t-38.5 -16h-189q-41 0 -57 9t-27 50q-2 12 -12 73t-24.5 143.5t-29.5 176t-27.5 174.5t-22 137t-11.5 64q-6 23 -8 26t-12 11q-16 10 -30.5 33t-14.5 57z" />
<glyph unicode="w" horiz-adv-x="1316" d="M39 954v70h156q31 0 52 -14.5t27 -53.5q0 -6 6.5 -42.5t15.5 -92t19.5 -124t22.5 -138.5q27 -166 59 -373q43 207 80 373q14 70 29.5 139.5t28 126t20.5 94t10 48.5q10 35 34 46t56 11q31 0 55.5 -8t34.5 -47q2 -6 9.5 -42t19.5 -91.5t26.5 -125t30.5 -139.5 q37 -168 80 -374q37 199 66 358q12 68 24.5 135.5l22.5 121.5t16.5 91t8.5 45q8 47 28.5 61.5t55.5 14.5h145v-59q0 -41 -11.5 -63.5t-27.5 -33.5q-14 -10 -20 -43q-2 -12 -9.5 -51t-17.5 -94t-22.5 -121.5t-24.5 -134.5q-29 -158 -64 -352q-18 -72 -69 -72h-170 q-33 0 -49.5 20.5t-26.5 49.5l-109 526l-114 -522q-12 -41 -31.5 -57.5t-44.5 -16.5h-162q-41 0 -59.5 25.5t-22.5 54.5q-2 10 -8 47t-15.5 91t-19.5 119.5t-22 133.5q-27 158 -60 348q-6 31 -22 45q-16 10 -26.5 33t-10.5 57z" />
<glyph unicode="x" horiz-adv-x="763" d="M39 0v100q0 25 12 38.5t23 21.5l8 8t8 16l164 299q2 4 4 11q4 12 4 14t-4 14l-4 13l-141 296q-8 18 -37 29q-29 14 -29 74v90h29h110q31 0 47.5 -13.5t38.5 -66.5l99 -252q0 -2 2 -4q4 -4 6 -4q2 -2 5 1t5 7l4 8l58 140q0 4 1 11t-6 13q-10 8 -19 22.5t-9 37.5v100h274 v-100q0 -25 -9 -39.5t-19 -20.5q-4 -4 -9.5 -9t-9.5 -19q-2 0 -25.5 -48.5t-52.5 -107.5l-78 -156q-2 -2 -2 -6v-10v-8q0 -4 2 -6l162 -295q4 -10 15.5 -17.5t25.5 -11.5q33 -16 33 -74v-96h-39h-92q-35 0 -55.5 23.5t-36.5 58.5q-4 4 -23.5 48t-42.5 97l-61 135q-2 0 -2 3 l-4 4q-4 0 -4 -4l-3 -3q-20 -49 -36 -88l-37 -90q0 -4 -1 -10t7 -14q10 -8 20.5 -22.5t10.5 -37.5v-100h-287z" />
<glyph unicode="y" horiz-adv-x="772" d="M39 956v70h160q31 0 45 -9t20 -48q0 -2 5 -38t14.5 -94.5t19.5 -132t23 -151.5q27 -182 61 -412q35 223 62 404q12 76 23 149.5t20.5 134t15.5 98.5t6 44q4 29 18.5 42t57.5 13h143v-59q0 -39 -9 -57.5t-17 -24.5q-10 -6 -12.5 -11.5t-4.5 -9.5q-4 -18 -15 -79.5 t-27.5 -152.5t-36 -200.5t-40 -223.5t-40 -223.5t-36 -197.5t-26.5 -146.5t-12 -70.5q-10 -53 -24.5 -69.5t-47.5 -16.5h-98h-41v104q0 57 35 72q12 4 19 8t11 15l58 317h-76q-55 0 -66 57q-8 41 -19 106.5t-25.5 141.5t-29 158t-27.5 154.5t-25.5 131t-18.5 89.5 q-6 23 -21 34q-16 10 -19 30t-3 54z" />
<glyph unicode="z" horiz-adv-x="727" d="M59 35v117q0 16 2 20q0 4 2 6q100 178 181 322q33 61 65.5 119.5t59 104.5t43 74.5t18.5 32.5q4 20 -18 21h-144q-12 0 -15 -4t-3 -14v-48h-105q-35 0 -55 20.5t-20 51.5v133q0 33 30 33h90h420q37 0 37 -35v-123q0 -6 -1 -11t-1 -9q-2 -4 -2 -6q-100 -178 -180 -322 q-35 -61 -68 -119.5t-58.5 -104.5t-43 -75t-17.5 -31q-4 -8 3.5 -15t17.5 -7h123h29h32q0 29 16.5 52.5t49.5 23.5h121v-209q0 -16 -15.5 -24.5t-29.5 -8.5h-156h-47h-326q-16 0 -25.5 10t-9.5 25z" />
<glyph unicode="{" horiz-adv-x="790" d="M49 707v116q0 6 4 13q4 4 7 8t14 4h92q63 0 95 43t32 115v4v508v41v10q0 82 51 131t148 49h12h49h184q4 0 4 -6v-174q0 -6 -4 -6h-215q-25 0 -24 -25v-528q0 -127 -37 -180.5t-103 -53.5q139 0 140 -254v-545q0 -14 16 -14h223q4 0 4 -4v-174q0 -6 -4 -6h-180h-53h-12 q-104 0 -151.5 43t-47.5 137v10v49v527q-4 63 -34 99t-89 36h-92q-10 0 -19.5 6t-9.5 21z" />
<glyph unicode="|" horiz-adv-x="321" d="M66 -51v1630q0 6 6 6h180q6 0 6 -6v-1630q0 -4 -6 -4h-180q-6 0 -6 4z" />
<glyph unicode="}" horiz-adv-x="790" d="M49 -43q0 6 4 6h215q25 0 25 25v528q0 127 37 180.5t102 53.5q-139 0 -139 254v544q0 14 -17 15h-223q-4 0 -4 4v174q0 6 4 6h180h54h12q104 0 151.5 -43t47.5 -137v-11v-49v-526q4 -63 33.5 -99t89.5 -36h92q10 0 19 -6t9 -21v-117q0 -6 -4 -12q-8 -12 -20 -12h-92 q-63 0 -95 -43t-32 -115v-4v-508v-41v-10q0 -82 -51.5 -131t-147.5 -49h-12h-49h-185q-4 0 -4 6v174z" />
<glyph unicode="~" horiz-adv-x="821" d="M49 541v94q0 27 9.5 39t25.5 22q14 6 28.5 13.5t33 13.5t44 10t64.5 4q61 0 103 -6t76 -14t65.5 -14.5t72.5 -6.5q53 0 89 7.5t73 23.5q16 8 27.5 1t11.5 -17v-109q1 -33 -22 -45q-31 -18 -68 -32.5t-102 -14.5q-88 0 -174.5 20.5t-165.5 20.5q-53 0 -87 -10.5t-67 -20.5 q-37 -10 -37 21z" />
<glyph unicode="&#xa1;" horiz-adv-x="303" d="M49 1372v141q0 14 28.5 23.5t76.5 9.5q47 0 73.5 -7t26.5 -23v-3v-137q0 -16 -28.5 -22t-71.5 -6q-47 0 -76 6t-29 18zM55 31q0 10 1 84.5t2 185.5t3 242t4.5 254t3.5 222t1 146q0 33 32 33h107q25 0 24 -39q2 -49 3.5 -150.5t2.5 -225.5t3 -256t3 -241.5t2 -182t1 -78.5 q0 -43 -39 -43h-117q-23 0 -30 10t-7 39z" />
<glyph unicode="&#xa2;" d="M80 322v385q0 135 69.5 217t182.5 104v139h125v-141q55 -12 101 -40t80 -65.5t52.5 -82.5t18.5 -93v-106h-86q-53 0 -81 31.5t-28 74.5q0 51 -32 89t-89 38q-55 0 -87 -37.5t-32 -119.5v-402q0 -82 32 -119.5t87 -37.5q29 0 51.5 13t38 32.5t23.5 43t8 46.5v4 q0 47 27.5 81t81.5 34h86v-119q0 -113 -71 -189.5t-181 -99.5v-123h-125v121q-113 23 -182.5 104.5t-69.5 217.5z" />
<glyph unicode="&#xa3;" horiz-adv-x="878" d="M41 143q45 47 82 109q31 53 57.5 128t26.5 171q0 41 -3 66.5t-9 60.5h-101v117h80q-23 90 -45.5 171t-22.5 179q-10 111 23 198q14 37 37.5 74t61.5 64.5t93.5 45t131.5 17.5q164 0 251 -97t87 -255v-150h-82q-39 0 -66 14.5t-43 38t-23.5 54.5t-7.5 63q0 72 -37.5 104 t-95.5 32q-49 0 -75.5 -18.5t-36.5 -41.5q-12 -25 -13 -57q0 -82 6.5 -143.5t15.5 -111.5t19 -93t21 -88h182v-117h-166q6 -39 9 -74t3 -90q0 -92 -23.5 -171t-58.5 -144q59 -4 123 -10.5t95 -6.5t58.5 24.5t27.5 65.5v95q0 47 27.5 80.5t82.5 33.5h101v-194 q0 -154 -74 -230.5t-209 -76.5q-27 0 -66 3t-81 7t-81.5 7t-64.5 3q-29 0 -49.5 -3t-34.5 -7q-16 -6 -27 -10q-14 18 -31.5 45.5t-33.5 54.5q-20 31 -41 63z" />
<glyph unicode="&#xa5;" horiz-adv-x="917" d="M59 1468v62h334v-68q0 -37 -13 -55t-30 -29q-10 -8 -20.5 -16t-5.5 -25q0 -4 6 -29.5t15 -63.5t21.5 -85t24.5 -96q29 -113 64 -256h4q37 143 65 258q12 49 24.5 96t22 85t16.5 62.5t7 28.5q4 16 -5 24.5t-20 16.5q-16 10 -30.5 32t-14.5 58v62h334v-62q0 -35 -14.5 -57 t-30.5 -33q-8 -6 -20.5 -14t-16.5 -25q-2 -4 -12 -38.5t-25.5 -88t-35 -121t-39.5 -137.5q-49 -164 -109 -368v-387v-2q0 -20 5 -28.5t15 -14.5q16 -12 33 -35t17 -58v-61h-342v61q0 35 16 57.5t33 35.5q10 6 15 14t5 27v391q-61 209 -108 375q-20 70 -40 138t-35 121.5 t-25.5 87t-10.5 38.5q-4 12 -13 20t-14 12q-16 10 -31.5 33t-15.5 57zM172 416v92q0 6 6 6h572q4 0 4 -6v-92q0 -4 -4 -4h-572q-6 0 -6 4zM172 602v92q0 6 6 6h572q4 0 4 -6v-92q0 -6 -4 -6h-572q-6 0 -6 6z" />
<glyph unicode="&#xa6;" horiz-adv-x="262" d="M49 -59v731q0 6 6 6h152q6 0 6 -6v-731q0 -6 -6 -7h-152q-6 0 -6 7zM49 836v731q0 6 6 6h152q6 0 6 -6v-731q0 -6 -6 -7h-152q-6 0 -6 7z" />
<glyph unicode="&#xa8;" horiz-adv-x="579" d="M49 1321q0 80 25 80h2h108q14 0 18.5 -21.5t4.5 -58.5q0 -82 -21 -82h-110q-27 0 -27 82zM371 1321q0 80 22 80h4l109 2q16 0 20 -22.5t4 -59.5q0 -82 -20 -82h-113q-27 0 -26 82z" />
<glyph unicode="&#xa9;" horiz-adv-x="1193" d="M55 760q0 111 40 208t118 175t176 119t209 41q109 0 207 -41t176 -119t119 -175.5t41 -207.5q0 -111 -41 -208t-119 -175t-176 -119t-207 -41q-111 0 -209 41t-176 119t-118 175t-40 208zM117 760q0 -100 38 -187.5t103.5 -153t152.5 -103t187 -37.5q98 0 186 37.5 t154 103t103.5 152.5t37.5 188q0 100 -37.5 187t-103.5 152.5t-154 103.5t-186 38q-100 0 -187 -38t-152.5 -103.5t-103.5 -152.5t-38 -187zM375 623q0 -109 56 -168.5t163 -59.5q102 0 159.5 57.5t57.5 149.5v82h-59q-37 0 -56.5 -23.5t-19.5 -56.5v-2q0 -94 -82 -94 q-41 0 -62.5 20.5t-21.5 77.5v301q0 47 21.5 73t62.5 26q39 0 60.5 -28t21.5 -63q0 -29 19.5 -50t56.5 -21h59v71q0 39 -14.5 75t-42 64.5t-68.5 46t-92 17.5q-106 0 -162.5 -59.5t-56.5 -169.5v-266z" />
<glyph unicode="&#xab;" horiz-adv-x="1034" d="M49 612l4 4q98 98 199.5 209t218.5 228q4 4 8 0l88 -92q4 -4 0 -9l-295 -336q-8 -4 0 -8l295 -338q2 -2 0 -8l-86 -86q-4 -4 -8 0q-80 80 -134 135.5t-93 95t-64.5 66.5t-45 48.5t-39 42t-44.5 44.5zM438 612l4 4q98 98 199.5 209t218.5 228q4 4 8 0l88 -92q4 -4 0 -9 l-294 -336q-8 -4 0 -8l294 -338q2 -2 0 -8l-86 -86q-4 -4 -8 0q-80 80 -134 135.5t-93 95t-64.5 66.5t-45 48.5t-39 42t-44.5 44.5z" />
<glyph unicode="&#xac;" horiz-adv-x="927" d="M51 535v165q0 6 6 7h817q6 0 7 -7v-165q0 -6 -7 -7h-817q-6 0 -6 7zM705 299v401q0 6 6 7h163q6 0 7 -7v-401q0 -6 -7 -6h-163q-6 0 -6 6z" />
<glyph unicode="&#xad;" horiz-adv-x="487" d="M49 532v154q0 6 6 6h377q6 0 6 -6v-154q0 -6 -6 -6h-377q-6 0 -6 6z" />
<glyph unicode="&#xae;" horiz-adv-x="864" d="M53 999q0 158 111 269q53 55 122.5 83.5t147.5 28.5q158 1 271 -112q111 -111 110 -269q0 -78 -28.5 -147.5t-81.5 -122.5q-115 -111 -271 -111q-78 0 -147.5 29t-122.5 82t-82 123t-29 147zM115 999q0 -66 25.5 -124t68.5 -101t101 -68.5t124 -25.5t124 25.5t101 68.5 t69 101.5t26 123.5q0 66 -26 124.5t-69 101.5t-101 67.5t-124 24.5t-124 -24.5t-101 -67.5t-68.5 -101.5t-25.5 -124.5zM307 754v18q0 18 17 31l4 4t2 10v367q0 6 -2 8l-4 4q-6 4 -11.5 11t-5.5 22v18h123q57 0 82 -30.5t25 -79.5v-62q0 -43 -31 -67q-6 -6 0 -13 q31 -23 31 -75v-105q0 -6 2 -7t6 -5t11 -8t7 -17v-24h-59q-33 0 -33 30v138q0 49 -41 49h-27q-10 0 -10 -10v-144q0 -10 8 -14q4 -4 9.5 -12.5t5.5 -18.5v-18h-109zM393 1032q0 -8 8 -8h29q41 0 41 51v68q0 23 -9 36t-32 13h-24q-12 0 -13 -8v-152z" />
<glyph unicode="&#xaf;" horiz-adv-x="1705" />
<glyph unicode="&#xb0;" horiz-adv-x="466" d="M49 1262v12v6v10q4 98 45 149.5t139 51.5q49 0 85 -16.5t57.5 -44t32 -63.5t10.5 -73v-18v-8v-6q-2 -88 -44 -142.5t-141 -54.5q-98 0 -138 51t-46 146zM152 1257q0 -115 81 -114q37 0 58.5 27.5t21.5 91.5v8v22q0 117 -80 117q-82 0 -81 -111v-18v-6v-17z" />
<glyph unicode="&#xb1;" horiz-adv-x="706" d="M49 535v153q0 6 4 6h209q6 0 6 4v209q0 6 6 6h152q6 0 6 -6v-209q0 -4 6 -4h207q6 0 6 -6v-153q0 -6 -6 -7h-207q-6 0 -6 -6v-207q0 -6 -6 -6h-152q-6 0 -6 6v207q0 6 -6 6h-209q-4 0 -4 7zM53 6v154q0 6 6 6h592q6 0 6 -6v-154q0 -6 -6 -6h-592q-6 0 -6 6z" />
<glyph unicode="&#xb4;" horiz-adv-x="417" d="M70 1243q-6 0 0 6l213 215q0 6 6 0l80 -92q0 -4 -2 -6l-242 -178q-6 -6 -6 0z" />
<glyph unicode="&#xb8;" horiz-adv-x="331" d="M35 -311q2 12 6 20q2 8 4 16.5t4 14.5q4 23 20.5 28t32.5 1l66 -19q8 -2 19.5 4t15.5 25q8 37 -25 45l-67 16v160h88v-86q53 -16 75.5 -58t8.5 -98q-16 -57 -51 -83.5t-89 -14.5z" />
<glyph unicode="&#xbb;" horiz-adv-x="1048" d="M72 272q-4 4 0 9l295 335q8 4 0 9l-295 338q-2 2 0 8l86 86q4 4 8 0q80 -80 134 -135.5t93 -95.5t64.5 -66.5t45 -48t39 -42t44.5 -44.5l4 -4l-4 -5q-98 -98 -199.5 -208.5t-218.5 -227.5q-4 -4 -8 0zM461 272q-4 4 0 9l295 335q8 4 0 9l-295 338q-2 2 0 8l86 86q4 4 8 0 q80 -80 134 -135.5t93 -95.5t64.5 -66.5t45 -48t39 -42t44.5 -44.5l4 -4l-4 -5q-98 -98 -199.5 -208.5t-218.5 -227.5q-4 -4 -8 0z" />
<glyph unicode="&#xbf;" horiz-adv-x="720" d="M49 322v210q0 78 39 131.5t87 95.5t87 80t39 85v247q0 12 4 23.5t27 11.5h135q20 0 26.5 -11t6.5 -26v-288v-2q0 -66 -40 -114t-88 -87t-88 -75t-40 -79v-211q0 -82 31.5 -116.5t84.5 -34.5q55 0 88 32.5t33 114.5v193h94q37 0 55.5 -14.5t28 -33t10.5 -36t1 -25.5v-37 v-34q0 -158 -80 -245t-230 -87q-147 0 -229 87t-82 245zM291 1362v135q0 14 29.5 23.5t76.5 9.5t73 -7t26 -24v-2v-131q0 -16 -27 -22.5t-72 -6.5q-47 0 -76.5 6.5t-29.5 18.5z" />
<glyph unicode="&#xc0;" horiz-adv-x="913" d="M0 0v53q0 35 15.5 62.5t31.5 38.5q10 8 18.5 17t12.5 26q57 315 104 563q20 106 39 207.5t34 181.5t24.5 129t9.5 51q2 16 2 29.5t-11 17.5q-51 20 -51 109v47h275q47 0 75.5 -27.5t32.5 -64.5q0 -8 10.5 -65.5t25.5 -146.5t34.5 -199.5t40.5 -225.5q47 -268 106 -606 q4 -16 12.5 -25.5t18.5 -17.5q16 -10 31.5 -36t15.5 -61v-57h-342v55q0 37 14.5 59.5t30.5 32.5q10 8 17.5 16.5t7.5 26.5q-4 39 -10 72q-4 29 -8.5 54.5t-4.5 35.5q-4 25 -16 33t-31 8h-233q-33 0 -37 -41q-2 -10 -3 -35.5t-5 -54.5q-4 -33 -9 -72q0 -18 4.5 -26t14.5 -17 q16 -10 30.5 -32.5t14.5 -59.5v-55h-342zM232 1770q-6 6 0 6l96 78q0 6 6 0l174 -254q6 0 0 -6l-55 -49q-4 0 -6 2zM330 596q-2 -14 6 -23.5t20 -9.5h193q14 0 22 10.5t6 22.5q0 2 -6 35t-14 84t-18.5 115.5t-22.5 132.5l-61 356h-5l-61 -356q-12 -68 -22.5 -132.5 t-18.5 -115.5t-13 -84t-5 -35z" />
<glyph unicode="&#xc1;" horiz-adv-x="913" d="M0 0v53q0 35 15.5 62.5t31.5 38.5q10 8 18.5 17t12.5 26q57 315 104 563q20 106 39 207.5t34 181.5t24.5 129t9.5 51q2 16 2 29.5t-11 17.5q-51 20 -51 109v47h275q47 0 75.5 -27.5t32.5 -64.5q0 -8 10.5 -65.5t25.5 -146.5t34.5 -199.5t40.5 -225.5q47 -268 106 -606 q4 -16 12.5 -25.5t18.5 -17.5q16 -10 31.5 -36t15.5 -61v-57h-342v55q0 37 14.5 59.5t30.5 32.5q10 8 17.5 16.5t7.5 26.5q-4 39 -10 72q-4 29 -8.5 54.5t-4.5 35.5q-4 25 -16 33t-31 8h-233q-33 0 -37 -41q-2 -10 -3 -35.5t-5 -54.5q-4 -33 -9 -72q0 -18 4.5 -26t14.5 -17 q16 -10 30.5 -32.5t14.5 -59.5v-55h-342zM248 1622q-6 0 0 6l213 215q0 6 6 0l80 -92q0 -4 -2 -6l-242 -178q-6 -6 -6 0zM330 596q-2 -14 6 -23.5t20 -9.5h193q14 0 22 10.5t6 22.5q0 2 -6 35t-14 84t-18.5 115.5t-22.5 132.5l-61 356h-5l-61 -356q-12 -68 -22.5 -132.5 t-18.5 -115.5t-13 -84t-5 -35z" />
<glyph unicode="&#xc2;" horiz-adv-x="923" d="M10 0v53q0 35 15.5 62.5t31.5 38.5q10 8 18.5 17t12.5 26q57 315 104 563q20 106 39 207.5t34 181.5t24.5 129t9.5 51q2 16 2 29.5t-11 17.5q-51 20 -51 109v47h275q47 0 75.5 -27.5t32.5 -64.5q0 -8 10.5 -65.5t25.5 -146.5t34.5 -199.5t40.5 -225.5q47 -268 106 -606 q4 -16 12.5 -25.5t18.5 -17.5q16 -10 31.5 -36t15.5 -61v-57h-342v55q0 37 14.5 59.5t30.5 32.5q10 8 17.5 16.5t7.5 26.5q-4 39 -10 72q-4 29 -8.5 54.5t-4.5 35.5q-4 25 -16 33t-31 8h-233q-33 0 -37 -41q-2 -10 -3 -35.5t-5 -54.5q-4 -33 -9 -72q0 -18 4.5 -26t14.5 -17 q16 -10 30.5 -32.5t14.5 -59.5v-55h-342zM205 1606q-6 0 0 6l213 213h4h2l213 -213q6 -6 0 -6l-53 -51q-2 -2 -5 0l-155 106q-4 2 -6 0l-156 -106q-4 -4 -4 0zM340 596q-2 -14 6 -23.5t20 -9.5h193q14 0 22 10.5t6 22.5q0 2 -6 35t-14 84t-18.5 115.5t-22.5 132.5l-61 356 h-5l-61 -356q-12 -68 -22.5 -132.5t-18.5 -115.5t-13 -84t-5 -35z" />
<glyph unicode="&#xc3;" horiz-adv-x="913" d="M0 0v53q0 35 15.5 62.5t31.5 38.5q10 8 18.5 17t12.5 26q57 315 104 563q20 106 39 207.5t34 181.5t24.5 129t9.5 51q2 16 2 29.5t-11 17.5q-51 20 -51 109v47h275q47 0 75.5 -27.5t32.5 -64.5q0 -8 10.5 -65.5t25.5 -146.5t34.5 -199.5t40.5 -225.5q47 -268 106 -606 q4 -16 12.5 -25.5t18.5 -17.5q16 -10 31.5 -36t15.5 -61v-57h-342v55q0 37 14.5 59.5t30.5 32.5q10 8 17.5 16.5t7.5 26.5q-4 39 -10 72q-4 29 -8.5 54.5t-4.5 35.5q-4 25 -16 33t-31 8h-233q-33 0 -37 -41q-2 -10 -3 -35.5t-5 -54.5q-4 -33 -9 -72q0 -18 4.5 -26t14.5 -17 q16 -10 30.5 -32.5t14.5 -59.5v-55h-342zM204 1610v65q0 18 5.5 27.5t15.5 17.5q16 10 34.5 19.5t65.5 9.5q35 0 59.5 -4t45 -10.5t39 -10.5t41.5 -4q33 0 53 5t43 16q10 6 16 2t6 -13v-77q0 -23 -14 -33q-16 -12 -38.5 -22.5t-59.5 -10.5q-51 0 -102.5 14.5t-98.5 14.5 q-31 0 -50.5 -7.5t-37.5 -15.5q-23 -6 -23 17zM330 596q-2 -14 6 -23.5t20 -9.5h193q14 0 22 10.5t6 22.5q0 2 -6 35t-14 84t-18.5 115.5t-22.5 132.5l-61 356h-5l-61 -356q-12 -68 -22.5 -132.5t-18.5 -115.5t-13 -84t-5 -35z" />
<glyph unicode="&#xc4;" horiz-adv-x="913" d="M0 0v53q0 35 15.5 62.5t31.5 38.5q10 8 18.5 17t12.5 26q57 315 104 563q20 106 39 207.5t34 181.5t24.5 129t9.5 51q2 16 2 29.5t-11 17.5q-51 20 -51 109v47h275q47 0 75.5 -27.5t32.5 -64.5q0 -8 10.5 -65.5t25.5 -146.5t34.5 -199.5t40.5 -225.5q47 -268 106 -606 q4 -16 12.5 -25.5t18.5 -17.5q16 -10 31.5 -36t15.5 -61v-57h-342v55q0 37 14.5 59.5t30.5 32.5q10 8 17.5 16.5t7.5 26.5q-4 39 -10 72q-4 29 -8.5 54.5t-4.5 35.5q-4 25 -16 33t-31 8h-233q-33 0 -37 -41q-2 -10 -3 -35.5t-5 -54.5q-4 -33 -9 -72q0 -18 4.5 -26t14.5 -17 q16 -10 30.5 -32.5t14.5 -59.5v-55h-342zM178 1671q0 80 25 80h2h108q14 0 18.5 -21.5t4.5 -58.5q0 -82 -21 -82h-110q-27 0 -27 82zM330 596q-2 -14 6 -23.5t20 -9.5h193q14 0 22 10.5t6 22.5q0 2 -6 35t-14 84t-18.5 115.5t-22.5 132.5l-61 356h-5l-61 -356 q-12 -68 -22.5 -132.5t-18.5 -115.5t-13 -84t-5 -35zM500 1671q0 80 22 80h4l109 2q16 0 20 -22.5t4 -59.5q0 -82 -20 -82h-113q-27 0 -26 82z" />
<glyph unicode="&#xc5;" horiz-adv-x="923" d="M10 0v53q0 35 15.5 62.5t31.5 38.5q10 8 18.5 17t12.5 26q57 315 104 563q20 106 39 207.5t34 181.5t24.5 129t9.5 51q2 16 2 29.5t-11 17.5q-51 20 -51 109v47h275q47 0 75.5 -27.5t32.5 -64.5q0 -8 10.5 -65.5t25.5 -146.5t34.5 -199.5t40.5 -225.5q47 -268 106 -606 q4 -16 12.5 -25.5t18.5 -17.5q16 -10 31.5 -36t15.5 -61v-57h-342v55q0 37 14.5 59.5t30.5 32.5q10 8 17.5 16.5t7.5 26.5q-4 39 -10 72q-4 29 -8.5 54.5t-4.5 35.5q-4 25 -16 33t-31 8h-233q-33 0 -37 -41q-2 -10 -3 -35.5t-5 -54.5q-4 -33 -9 -72q0 -18 4.5 -26t14.5 -17 q16 -10 30.5 -32.5t14.5 -59.5v-55h-342zM299 1721v10v4v8q4 74 34.5 113t104.5 39q76 0 108 -45t32 -105v-12v-6v-6q0 -66 -32 -107t-108 -41q-72 0 -103.5 38t-35.5 110zM340 596q-2 -14 6 -23.5t20 -9.5h193q14 0 22 10.5t6 22.5q0 2 -6 35t-14 84t-18.5 115.5 t-22.5 132.5l-61 356h-5l-61 -356q-12 -68 -22.5 -132.5t-18.5 -115.5t-13 -84t-5 -35zM377 1719q0 -86 61 -87q29 0 45.5 20.5t16.5 68.5v6v18q0 88 -62 88q-61 0 -61 -84v-14v-4v-12z" />
<glyph unicode="&#xc6;" horiz-adv-x="1273" d="M49 0v63q0 35 15.5 57.5t31.5 33.5q10 8 18.5 17t12.5 26l164 561q31 104 59.5 205.5t52 181.5t38 130t14.5 52q2 16 -2 27.5t-27 19.5q-23 10 -47.5 36t-24.5 73v47h303h7h499q25 0 38 -14.5t13 -30.5v-211h-67q-41 0 -65.5 20.5t-34.5 38.5q-14 25 -43 25h-152 q-27 0 -27 -29v-424q0 -29 29 -28h203q12 0 22.5 -7.5t10.5 -23.5v-115q0 -29 -31 -29h-205q-29 0 -29 -28v-477q0 -12 10.5 -20.5t20.5 -8.5h160q20 0 26 20q10 20 34 44t69 24h69v-203q0 -23 -14 -38t-39 -15h-125h-162h-342v55q0 37 14.5 59.5t31.5 32.5q4 4 10 6.5 t14 6.5q20 14 21 41v153q-4 23 -16.5 31t-28.5 8h-177q-18 0 -25 -11t-11 -30q-4 -10 -10.5 -35.5t-12.5 -54.5q-8 -33 -14 -72q0 -33 18 -43q16 -10 30.5 -32.5t14.5 -59.5v-55h-342zM418 592q-4 -33 28 -33h146q16 0 23.5 10.5t5.5 22.5v725h-5l-98 -356 q-18 -68 -36.5 -132.5t-32 -117t-22.5 -85t-9 -34.5z" />
<glyph unicode="&#xc7;" horiz-adv-x="796" d="M53 295v950q0 78 28 136.5t75 96.5t112.5 56t141.5 18t140.5 -18t112.5 -56t75.5 -96.5t27.5 -136.5v-153h-88q-51 0 -83 31.5t-32 80.5v29q0 82 -48 116.5t-105 34.5t-105.5 -34.5t-48.5 -116.5v-936q0 -63 45 -102t103 -39q29 0 57.5 10t51 29.5t36.5 45t14 56.5v35 q0 47 28 80.5t83 33.5h92v-172q0 -78 -28.5 -133t-78 -90t-114.5 -50t-141 -15t-140.5 18.5t-110.5 57t-73 97t-27 136.5zM264 -311q2 12 6 20q2 8 4 16.5t4 14.5q4 23 20.5 28t32.5 1l66 -19q8 -2 19.5 4t15.5 25q8 37 -25 45l-67 16v160h88v-86q53 -16 75.5 -58t8.5 -98 q-16 -57 -51 -83.5t-89 -14.5z" />
<glyph unicode="&#xc8;" horiz-adv-x="780" d="M59 0v53q0 45 11 68.5t32 34.5q27 14 27 43v1132q0 18 -8.5 28.5t-18.5 16.5q-20 10 -31.5 33t-11.5 64v59h649q25 0 39 -14.5t14 -30.5v-217h-75q-43 0 -73 11t-30 46q0 12 -6 23.5t-22 11.5h-197q-10 0 -19.5 -9.5t-9.5 -21.5v-428q0 -29 31 -29h244q10 0 21 -7t11 -23 v-115q0 -29 -30 -29h-246q-31 0 -31 -28v-477q0 -29 25 -29h205q23 0 22 27q0 33 27.5 51t75.5 18h77v-211q0 -23 -15 -37t-38 -14h-127h-399h-123zM203 1770q-6 6 0 6l96 78q0 6 6 0l174 -254q6 0 0 -6l-55 -49q-4 0 -6 2z" />
<glyph unicode="&#xc9;" horiz-adv-x="780" d="M59 0v53q0 45 11 68.5t32 34.5q27 14 27 43v1132q0 18 -8.5 28.5t-18.5 16.5q-20 10 -31.5 33t-11.5 64v59h649q25 0 39 -14.5t14 -30.5v-217h-75q-43 0 -73 11t-30 46q0 12 -6 23.5t-22 11.5h-197q-10 0 -19.5 -9.5t-9.5 -21.5v-428q0 -29 31 -29h244q10 0 21 -7t11 -23 v-115q0 -29 -30 -29h-246q-31 0 -31 -28v-477q0 -29 25 -29h205q23 0 22 27q0 33 27.5 51t75.5 18h77v-211q0 -23 -15 -37t-38 -14h-127h-399h-123zM213 1626q-6 0 0 6l213 215q0 6 6 0l80 -92q0 -4 -2 -6l-242 -178q-6 -6 -6 0z" />
<glyph unicode="&#xca;" horiz-adv-x="800" d="M59 0v53q0 45 11 68.5t32 34.5q27 14 27 43v1132q0 18 -8.5 28.5t-18.5 16.5q-20 10 -31.5 33t-11.5 64v59h649q25 0 39 -14.5t14 -30.5v-217h-75q-43 0 -73 11t-30 46q0 12 -6 23.5t-22 11.5h-197q-10 0 -19.5 -9.5t-9.5 -21.5v-428q0 -29 31 -29h244q10 0 21 -7t11 -23 v-115q0 -29 -30 -29h-246q-31 0 -31 -28v-477q0 -29 25 -29h205q23 0 22 27q0 33 27.5 51t75.5 18h77v-211q0 -23 -15 -37t-38 -14h-127h-399h-123zM178 1618q-6 0 0 6l213 213h4h2l213 -213q6 -6 0 -6l-53 -51q-2 -2 -5 0l-155 106q-4 2 -6 0l-156 -106q-4 -4 -4 0z" />
<glyph unicode="&#xcb;" horiz-adv-x="780" d="M39 0v53q0 45 11 68.5t32 34.5q27 14 27 43v1132q0 18 -8.5 28.5t-18.5 16.5q-20 10 -31.5 33t-11.5 64v59h649q25 0 39 -14.5t14 -30.5v-217h-75q-43 0 -73 11t-30 46q0 12 -6 23.5t-22 11.5h-197q-10 0 -19.5 -9.5t-9.5 -21.5v-428q0 -29 31 -29h244q10 0 21 -7t11 -23 v-115q0 -29 -30 -29h-246q-31 0 -31 -28v-477q0 -29 25 -29h205q23 0 22 27q0 33 27.5 51t75.5 18h77v-211q0 -23 -15 -37t-38 -14h-127h-399h-123zM155 1649q0 80 25 80h2h108q14 0 18.5 -21.5t4.5 -58.5q0 -82 -21 -82h-110q-27 0 -27 82zM477 1649q0 80 22 80h4l109 2 q16 0 20 -22.5t4 -59.5q0 -82 -20 -82h-113q-27 0 -26 82z" />
<glyph unicode="&#xcc;" horiz-adv-x="495" d="M84 1792q-6 6 0 6l96 78q0 6 6 0l174 -254q6 0 0 -6l-55 -49q-4 0 -6 2zM94 0v61q0 35 14.5 56.5t34.5 36.5q10 6 15.5 14t5.5 27v4v1134q0 20 -5.5 28.5t-15.5 16.5q-16 12 -32.5 35t-16.5 57v60h342v-60q0 -35 -16.5 -57t-32.5 -35q-10 -8 -15.5 -16t-5.5 -29v-1134v-4 q0 -18 6.5 -26.5t14.5 -14.5q16 -12 32.5 -35t16.5 -58v-61h-342z" />
<glyph unicode="&#xcd;" horiz-adv-x="475" d="M74 0v61q0 35 14.5 56.5t34.5 36.5q10 6 15.5 14t5.5 27v4v1134q0 20 -5.5 28.5t-15.5 16.5q-16 12 -32.5 35t-16.5 57v60h342v-60q0 -35 -16.5 -57t-32.5 -35q-10 -8 -15.5 -16t-5.5 -29v-1134v-4q0 -18 6.5 -26.5t14.5 -14.5q16 -12 32.5 -35t16.5 -58v-61h-342z M109 1605q-6 0 0 6l213 215q0 6 6 0l80 -92q0 -4 -2 -6l-242 -178q-6 -6 -6 0z" />
<glyph unicode="&#xce;" horiz-adv-x="432" d="M-10 1610q-6 0 0 6l213 213h4h2l213 -213q6 -6 0 -6l-53 -51q-2 -2 -5 0l-155 106q-4 2 -6 0l-156 -106q-4 -4 -4 0zM47 0v61q0 35 14.5 56.5t34.5 36.5q10 6 15.5 14t5.5 27v4v1134q0 20 -5.5 28.5t-15.5 16.5q-16 12 -32.5 35t-16.5 57v60h342v-60q0 -35 -16.5 -57 t-32.5 -35q-10 -8 -15.5 -16t-5.5 -29v-1134v-4q0 -18 6.5 -26.5t14.5 -14.5q16 -12 32.5 -35t16.5 -58v-61h-342z" />
<glyph unicode="&#xcf;" horiz-adv-x="495" d="M-25 1653q0 80 25 80h2h108q14 0 18.5 -21.5t4.5 -58.5q0 -82 -21 -82h-110q-27 0 -27 82zM62 0v61q0 35 14.5 56.5t34.5 36.5q10 6 15.5 14t5.5 27v4v1134q0 20 -5.5 28.5t-15.5 16.5q-16 12 -32.5 35t-16.5 57v60h342v-60q0 -35 -16.5 -57t-32.5 -35q-10 -8 -15.5 -16 t-5.5 -29v-1134v-4q0 -18 6.5 -26.5t14.5 -14.5q16 -12 32.5 -35t16.5 -58v-61h-342zM297 1653q0 80 22 80h4l109 2q16 0 20 -22.5t4 -59.5q0 -82 -20 -82h-113q-27 0 -26 82z" />
<glyph unicode="&#xd0;" horiz-adv-x="845" d="M27 686v154q0 6 6 6h84v483q0 18 -8.5 29.5t-18.5 15.5q-20 10 -31.5 33t-11.5 63v60h399q88 0 149.5 -23.5t101.5 -66.5t58.5 -104.5t18.5 -137.5v-866q0 -152 -76.5 -243t-251.5 -91h-399v55q0 45 12.5 68.5t32.5 34.5q25 14 25 43v481h-84q-6 0 -6 6zM317 195 q0 -10 6.5 -19.5t16.5 -9.5h106q66 0 95.5 43t29.5 115v878q0 72 -29.5 115t-95.5 43h-100q-14 0 -21.5 -9.5t-7.5 -19.5v-485h93q6 0 6 -6v-154q0 -6 -6 -6h-93v-485z" />
<glyph unicode="&#xd1;" horiz-adv-x="958" d="M70 0v61q0 35 16.5 57.5t32.5 35.5q8 6 14.5 14t6.5 29v1155q-20 8 -35 22q-14 12 -24.5 34t-10.5 56v68h231q25 0 37 -11.5t19 -31.5q0 -4 20.5 -69.5t51 -163t66.5 -213t67.5 -221t56 -185.5t33.5 -107q2 -4 5 -8t3 2v811q0 20 -6.5 28.5t-14.5 16.5q-16 12 -32.5 35 t-16.5 58v59h320v-59q0 -35 -16.5 -57.5t-33.5 -35.5q-8 -8 -13 -16t-7 -27v-1284q0 -20 -12.5 -36.5t-36.5 -16.5h-119q-27 0 -38 22.5t-21 57.5q-4 10 -27 80.5t-54.5 170t-67.5 212t-66.5 209t-51 161t-20.5 66.5q-2 4 -4 6t-2 -10v-776q0 -23 6 -31t16 -14 q16 -12 31.5 -35t15.5 -58v-61h-319zM270 1596v65q0 18 5.5 27.5t15.5 17.5q16 10 34.5 19.5t65.5 9.5q35 0 59.5 -4t45 -10.5t39 -10.5t41.5 -4q33 0 53 5t43 16q10 6 16 2t6 -13v-77q0 -23 -14 -33q-16 -12 -38.5 -22.5t-59.5 -10.5q-51 0 -102.5 14.5t-98.5 14.5 q-31 0 -50.5 -7.5t-37.5 -15.5q-23 -6 -23 17z" />
<glyph unicode="&#xd2;" horiz-adv-x="815" d="M49 291v950q0 78 28 136.5t77 96t114.5 56t141.5 18.5t141.5 -18.5t113.5 -56t75.5 -96t27.5 -136.5v-950q0 -78 -27.5 -136.5t-75.5 -97.5t-113.5 -57t-141.5 -18t-141.5 18t-114.5 57t-77 97.5t-28 136.5zM250 299q0 -41 14.5 -68.5t37 -45t51 -25.5t57.5 -8t56.5 8 t50 25.5t37 45t14.5 68.5v934q0 41 -14.5 68.5t-37 45t-50 25.5t-56.5 8t-57.5 -8t-51 -25.5t-37 -45t-14.5 -68.5v-934zM271 1790q-6 6 0 6l96 78q0 6 6 0l174 -254q6 0 0 -6l-55 -49q-4 0 -6 2z" />
<glyph unicode="&#xd3;" horiz-adv-x="815" d="M49 291v950q0 78 28 136.5t77 96t114.5 56t141.5 18.5t141.5 -18.5t113.5 -56t75.5 -96t27.5 -136.5v-950q0 -78 -27.5 -136.5t-75.5 -97.5t-113.5 -57t-141.5 -18t-141.5 18t-114.5 57t-77 97.5t-28 136.5zM250 299q0 -41 14.5 -68.5t37 -45t51 -25.5t57.5 -8t56.5 8 t50 25.5t37 45t14.5 68.5v934q0 41 -14.5 68.5t-37 45t-50 25.5t-56.5 8t-57.5 -8t-51 -25.5t-37 -45t-14.5 -68.5v-934zM263 1632q-6 0 0 6l213 215q0 6 6 0l80 -92q0 -4 -2 -6l-242 -178q-6 -6 -6 0z" />
<glyph unicode="&#xd4;" horiz-adv-x="823" d="M57 291v950q0 78 28 136.5t77 96t114.5 56t141.5 18.5t141.5 -18.5t113.5 -56t75.5 -96t27.5 -136.5v-950q0 -78 -27.5 -136.5t-75.5 -97.5t-113.5 -57t-141.5 -18t-141.5 18t-114.5 57t-77 97.5t-28 136.5zM189 1606q-6 0 0 6l213 213h4h2l213 -213q6 -6 0 -6l-53 -51 q-2 -2 -5 0l-155 106q-4 2 -6 0l-156 -106q-4 -4 -4 0zM258 299q0 -41 14.5 -68.5t37 -45t51 -25.5t57.5 -8t56.5 8t50 25.5t37 45t14.5 68.5v934q0 41 -14.5 68.5t-37 45t-50 25.5t-56.5 8t-57.5 -8t-51 -25.5t-37 -45t-14.5 -68.5v-934z" />
<glyph unicode="&#xd5;" horiz-adv-x="815" d="M49 291v950q0 78 28 136.5t77 96t114.5 56t141.5 18.5t141.5 -18.5t113.5 -56t75.5 -96t27.5 -136.5v-950q0 -78 -27.5 -136.5t-75.5 -97.5t-113.5 -57t-141.5 -18t-141.5 18t-114.5 57t-77 97.5t-28 136.5zM184 1618v65q0 18 5.5 27.5t15.5 17.5q16 10 34.5 19.5 t65.5 9.5q35 0 59.5 -4t45 -10.5t39 -10.5t41.5 -4q33 0 53 5t43 16q10 6 16 2t6 -13v-77q0 -23 -14 -33q-16 -12 -38.5 -22.5t-59.5 -10.5q-51 0 -102.5 14.5t-98.5 14.5q-31 0 -50.5 -7.5t-37.5 -15.5q-23 -6 -23 17zM250 299q0 -41 14.5 -68.5t37 -45t51 -25.5t57.5 -8 t56.5 8t50 25.5t37 45t14.5 68.5v934q0 41 -14.5 68.5t-37 45t-50 25.5t-56.5 8t-57.5 -8t-51 -25.5t-37 -45t-14.5 -68.5v-934z" />
<glyph unicode="&#xd6;" horiz-adv-x="815" d="M49 291v950q0 78 28 136.5t77 96t114.5 56t141.5 18.5t141.5 -18.5t113.5 -56t75.5 -96t27.5 -136.5v-950q0 -78 -27.5 -136.5t-75.5 -97.5t-113.5 -57t-141.5 -18t-141.5 18t-114.5 57t-77 97.5t-28 136.5zM162 1681q0 80 25 80h2h108q14 0 18.5 -21.5t4.5 -58.5 q0 -82 -21 -82h-110q-27 0 -27 82zM250 299q0 -41 14.5 -68.5t37 -45t51 -25.5t57.5 -8t56.5 8t50 25.5t37 45t14.5 68.5v934q0 41 -14.5 68.5t-37 45t-50 25.5t-56.5 8t-57.5 -8t-51 -25.5t-37 -45t-14.5 -68.5v-934zM484 1681q0 80 22 80h4l109 2q16 0 20 -22.5t4 -59.5 q0 -82 -20 -82h-113q-27 0 -26 82z" />
<glyph unicode="&#xd7;" horiz-adv-x="638" d="M51 461q-4 4 0 8l148 145q4 4 0 9l-148 147q-4 4 0 8l109 109q4 4 8 0l147 -148q4 -4 9 0l147 148q4 4 8 0l109 -109q4 -4 0 -8l-148 -147q-4 -4 0 -9l148 -145q4 -4 0 -8l-109 -109q-4 -4 -8 0l-147 146q-4 8 -9 0l-147 -146q-4 -4 -8 0z" />
<glyph unicode="&#xd8;" horiz-adv-x="890" d="M82 291v950q0 78 27.5 136.5t77 96t115 56t140.5 18.5q76 0 141.5 -18.5t113.5 -56t76 -96t28 -136.5v-950q0 -78 -28 -136.5t-76 -97.5t-113.5 -57t-141.5 -18t-141 18t-114.5 57t-77 97.5t-27.5 136.5zM90 6l539 1520q0 6 6 6h139q6 0 4 -6l-538 -1520q-6 -6 -9 -6 h-137q-4 0 -4 6zM283 299q0 -41 14 -68.5t36.5 -45t51.5 -25.5t57 -8q29 0 56.5 8t50 25.5t37 45t14.5 68.5v934q0 41 -14.5 68.5t-37 45t-50 25.5t-56.5 8t-57.5 -8t-51 -25.5t-36.5 -45t-14 -68.5v-934z" />
<glyph unicode="&#xd9;" horiz-adv-x="872" d="M12 1470v62h348v-62q0 -35 -19.5 -57t-35.5 -35q-10 -6 -15.5 -14t-5.5 -29v-1024q0 -80 50.5 -117.5t107.5 -37.5q55 0 104.5 37.5t49.5 117.5v1022v2v6q0 16 -6.5 23.5t-14.5 13.5q-16 12 -32.5 35t-16.5 57v62h336v-62q0 -35 -13.5 -57t-29.5 -35q-8 -6 -13.5 -13 t-7.5 -24v-4v-1042q0 -78 -27.5 -136.5t-75.5 -96t-112.5 -56t-140.5 -18.5t-141.5 18.5t-114.5 56t-76.5 96t-27.5 136.5v1038v2q0 20 -5.5 28.5t-15.5 14.5q-16 12 -32.5 35t-16.5 57zM293 1770q-6 6 0 6l96 78q0 6 6 0l174 -254q6 0 0 -6l-55 -49q-4 0 -6 2z" />
<glyph unicode="&#xda;" horiz-adv-x="872" d="M12 1470v62h348v-62q0 -35 -19.5 -57t-35.5 -35q-10 -6 -15.5 -14t-5.5 -29v-1024q0 -80 50.5 -117.5t107.5 -37.5q55 0 104.5 37.5t49.5 117.5v1022v2v6q0 16 -6.5 23.5t-14.5 13.5q-16 12 -32.5 35t-16.5 57v62h336v-62q0 -35 -13.5 -57t-29.5 -35q-8 -6 -13.5 -13 t-7.5 -24v-4v-1042q0 -78 -27.5 -136.5t-75.5 -96t-112.5 -56t-140.5 -18.5t-141.5 18.5t-114.5 56t-76.5 96t-27.5 136.5v1038v2q0 20 -5.5 28.5t-15.5 14.5q-16 12 -32.5 35t-16.5 57zM297 1618q-6 0 0 6l213 215q0 6 6 0l80 -92q0 -4 -2 -6l-242 -178q-6 -6 -6 0z" />
<glyph unicode="&#xdb;" horiz-adv-x="872" d="M12 1470v62h348v-62q0 -35 -19.5 -57t-35.5 -35q-10 -6 -15.5 -14t-5.5 -29v-1024q0 -80 50.5 -117.5t107.5 -37.5q55 0 104.5 37.5t49.5 117.5v1022v2v6q0 16 -6.5 23.5t-14.5 13.5q-16 12 -32.5 35t-16.5 57v62h336v-62q0 -35 -13.5 -57t-29.5 -35q-8 -6 -13.5 -13 t-7.5 -24v-4v-1042q0 -78 -27.5 -136.5t-75.5 -96t-112.5 -56t-140.5 -18.5t-141.5 18.5t-114.5 56t-76.5 96t-27.5 136.5v1038v2q0 20 -5.5 28.5t-15.5 14.5q-16 12 -32.5 35t-16.5 57zM232 1610q-6 0 0 6l213 213h4h2l213 -213q6 -6 0 -6l-53 -51q-2 -2 -5 0l-155 106 q-4 2 -6 0l-156 -106q-4 -4 -4 0z" />
<glyph unicode="&#xdc;" horiz-adv-x="872" d="M12 1470v62h348v-62q0 -35 -19.5 -57t-35.5 -35q-10 -6 -15.5 -14t-5.5 -29v-1024q0 -80 50.5 -117.5t107.5 -37.5q55 0 104.5 37.5t49.5 117.5v1022v2v6q0 16 -6.5 23.5t-14.5 13.5q-16 12 -32.5 35t-16.5 57v62h336v-62q0 -35 -13.5 -57t-29.5 -35q-8 -6 -13.5 -13 t-7.5 -24v-4v-1042q0 -78 -27.5 -136.5t-75.5 -96t-112.5 -56t-140.5 -18.5t-141.5 18.5t-114.5 56t-76.5 96t-27.5 136.5v1038v2q0 20 -5.5 28.5t-15.5 14.5q-16 12 -32.5 35t-16.5 57zM199 1657q0 80 25 80h2h108q14 0 18.5 -21.5t4.5 -58.5q0 -82 -21 -82h-110 q-27 0 -27 82zM521 1657q0 80 22 80h4l109 2q16 0 20 -22.5t4 -59.5q0 -82 -20 -82h-113q-27 0 -26 82z" />
<glyph unicode="&#xdd;" horiz-adv-x="958" d="M59 1468v62h332v-68q0 -37 -13.5 -55t-29.5 -29q-10 -8 -20.5 -16t-6.5 -25q0 -4 7 -28.5t17.5 -61.5t23.5 -82l26 -90q31 -109 67 -244h13q43 135 77 246q14 45 28.5 90t26 82t19.5 60.5t8 27.5q4 16 -5 24.5t-19 16.5q-16 10 -30.5 32t-14.5 58v62h334v-62 q0 -35 -14.5 -57t-30.5 -33q-8 -6 -20.5 -14t-16.5 -25q-2 -4 -13.5 -38.5t-28 -88t-38 -121t-43.5 -137.5q-53 -164 -119 -368v-387v-2q0 -20 5 -28.5t15 -14.5q16 -12 33 -35t17 -58v-61h-342v61q0 35 16 57.5t33 35.5q10 6 15 14t5 27v391q-66 209 -119 375 q-23 70 -44 138t-37.5 121.5t-27.5 87t-11 38.5q-4 12 -13.5 20t-13.5 12q-16 10 -31.5 33t-15.5 57zM344 1618q-6 0 0 6l213 215q0 6 6 0l80 -92q0 -4 -2 -6l-242 -178q-6 -6 -6 0z" />
<glyph unicode="&#xe0;" horiz-adv-x="837" d="M77 330v6q0 82 22.5 141.5t62.5 97t93.5 58t114.5 26.5q49 4 81 10.5t50 10.5q23 6 31 10v15q0 33 -3 62.5t-15.5 52t-37 34.5t-67.5 12t-67.5 -10t-36 -25.5t-14.5 -34t-3 -36.5v2q0 -23 -13 -34t-34.5 -15t-49.5 -5t-54 -1h-43v73q0 51 16.5 97.5t53 82t96 57 t147.5 21.5t148.5 -20.5t98.5 -58t54.5 -92t16.5 -124.5v-528q0 -16 1 -28.5t9 -18.5q16 -10 35.5 -40t19.5 -69v-59h-194q-25 0 -40.5 14.5t-19.5 30.5q-18 -16 -43 -27q-23 -10 -52.5 -18t-68.5 -8q-158 0 -226.5 89t-68.5 249zM262 311q0 -74 38.5 -117.5t106.5 -43.5 q37 0 61.5 11t38.5 27q16 16 27 39v299q-12 -4 -33 -8q-16 -4 -41.5 -8t-62.5 -8q-59 -6 -97 -54.5t-38 -117.5v-19zM271 1284q-6 6 0 6l96 78q0 6 6 0l174 -254q6 0 0 -6l-55 -49q-4 0 -6 2z" />
<glyph unicode="&#xe1;" horiz-adv-x="837" d="M77 330v6q0 82 22.5 141.5t62.5 97t93.5 58t114.5 26.5q49 4 81 10.5t50 10.5q23 6 31 10v15q0 33 -3 62.5t-15.5 52t-37 34.5t-67.5 12t-67.5 -10t-36 -25.5t-14.5 -34t-3 -36.5v2q0 -23 -13 -34t-34.5 -15t-49.5 -5t-54 -1h-43v73q0 51 16.5 97.5t53 82t96 57 t147.5 21.5t148.5 -20.5t98.5 -58t54.5 -92t16.5 -124.5v-528q0 -16 1 -28.5t9 -18.5q16 -10 35.5 -40t19.5 -69v-59h-194q-25 0 -40.5 14.5t-19.5 30.5q-18 -16 -43 -27q-23 -10 -52.5 -18t-68.5 -8q-158 0 -226.5 89t-68.5 249zM262 311q0 -74 38.5 -117.5t106.5 -43.5 q37 0 61.5 11t38.5 27q16 16 27 39v299q-12 -4 -33 -8q-16 -4 -41.5 -8t-62.5 -8q-59 -6 -97 -54.5t-38 -117.5v-19zM265 1114q-6 0 0 6l213 215q0 6 6 0l80 -92q0 -4 -2 -6l-242 -178q-6 -6 -6 0z" />
<glyph unicode="&#xe2;" horiz-adv-x="837" d="M77 330v6q0 82 22.5 141.5t62.5 97t93.5 58t114.5 26.5q49 4 81 10.5t50 10.5q23 6 31 10v15q0 33 -3 62.5t-15.5 52t-37 34.5t-67.5 12t-67.5 -10t-36 -25.5t-14.5 -34t-3 -36.5v2q0 -23 -13 -34t-34.5 -15t-49.5 -5t-54 -1h-43v73q0 51 16.5 97.5t53 82t96 57 t147.5 21.5t148.5 -20.5t98.5 -58t54.5 -92t16.5 -124.5v-528q0 -16 1 -28.5t9 -18.5q16 -10 35.5 -40t19.5 -69v-59h-194q-25 0 -40.5 14.5t-19.5 30.5q-18 -16 -43 -27q-23 -10 -52.5 -18t-68.5 -8q-158 0 -226.5 89t-68.5 249zM199 1114q-6 0 0 6l213 213h4h2l213 -213 q6 -6 0 -6l-53 -51q-2 -2 -5 0l-155 106q-4 2 -6 0l-156 -106q-4 -4 -4 0zM262 311q0 -74 38.5 -117.5t106.5 -43.5q37 0 61.5 11t38.5 27q16 16 27 39v299q-12 -4 -33 -8q-16 -4 -41.5 -8t-62.5 -8q-59 -6 -97 -54.5t-38 -117.5v-19z" />
<glyph unicode="&#xe3;" horiz-adv-x="837" d="M77 330v6q0 82 22.5 141.5t62.5 97t93.5 58t114.5 26.5q49 4 81 10.5t50 10.5q23 6 31 10v15q0 33 -3 62.5t-15.5 52t-37 34.5t-67.5 12t-67.5 -10t-36 -25.5t-14.5 -34t-3 -36.5v2q0 -23 -13 -34t-34.5 -15t-49.5 -5t-54 -1h-43v73q0 51 16.5 97.5t53 82t96 57 t147.5 21.5t148.5 -20.5t98.5 -58t54.5 -92t16.5 -124.5v-528q0 -16 1 -28.5t9 -18.5q16 -10 35.5 -40t19.5 -69v-59h-194q-25 0 -40.5 14.5t-19.5 30.5q-18 -16 -43 -27q-23 -10 -52.5 -18t-68.5 -8q-158 0 -226.5 89t-68.5 249zM198 1104v59q0 17 5.5 25.5t14.5 16.5 q15 9 32.5 17.5t62.5 8.5q34 0 57 -3.5t42.5 -9.5t37 -9.5t39.5 -3.5q32 0 51 4.5t41 14.5q9 5 15 1.5t6 -11.5v-71q0 -21 -14 -30q-15 -11 -36.5 -20.5t-56.5 -9.5q-49 0 -98 13t-93 13q-30 0 -48.5 -7t-35.5 -14q-22 -5 -22 16zM262 311q0 -74 38.5 -117.5t106.5 -43.5 q37 0 61.5 11t38.5 27q16 16 27 39v299q-12 -4 -33 -8q-16 -4 -41.5 -8t-62.5 -8q-59 -6 -97 -54.5t-38 -117.5v-19z" />
<glyph unicode="&#xe4;" horiz-adv-x="837" d="M77 330v6q0 82 22.5 141.5t62.5 97t93.5 58t114.5 26.5q49 4 81 10.5t50 10.5q23 6 31 10v15q0 33 -3 62.5t-15.5 52t-37 34.5t-67.5 12t-67.5 -10t-36 -25.5t-14.5 -34t-3 -36.5v2q0 -23 -13 -34t-34.5 -15t-49.5 -5t-54 -1h-43v73q0 51 16.5 97.5t53 82t96 57 t147.5 21.5t148.5 -20.5t98.5 -58t54.5 -92t16.5 -124.5v-528q0 -16 1 -28.5t9 -18.5q16 -10 35.5 -40t19.5 -69v-59h-194q-25 0 -40.5 14.5t-19.5 30.5q-18 -16 -43 -27q-23 -10 -52.5 -18t-68.5 -8q-158 0 -226.5 89t-68.5 249zM168 1153q0 80 25 80h2h108 q14 0 18.5 -21.5t4.5 -58.5q0 -82 -21 -82h-110q-27 0 -27 82zM262 311q0 -74 38.5 -117.5t106.5 -43.5q37 0 61.5 11t38.5 27q16 16 27 39v299q-12 -4 -33 -8q-16 -4 -41.5 -8t-62.5 -8q-59 -6 -97 -54.5t-38 -117.5v-19zM490 1153q0 80 22 80h4l109 2q16 0 20 -22.5 t4 -59.5q0 -82 -20 -82h-113q-27 0 -26 82z" />
<glyph unicode="&#xe5;" horiz-adv-x="837" d="M78 330v6q0 82 22.5 141.5t62.5 97t93 58t115 26.5q49 4 80.5 10.5t50.5 10.5q23 6 30 10v15q0 33 -3 62.5t-15 52t-36.5 34.5t-67.5 12t-68 -10t-36 -25.5t-14 -34t-3 -36.5v2q0 -23 -13.5 -34t-35 -15t-49 -5t-54.5 -1h-43v73q0 51 16.5 97.5t53.5 82t96 57t148 21.5 q88 0 148 -20.5t98 -58t54.5 -92t16.5 -124.5v-528q0 -16 1 -28.5t9 -18.5q16 -10 36 -40t20 -69v-59h-195q-25 0 -40 14.5t-19 30.5q-18 -16 -43 -27q-23 -10 -52.5 -18t-68.5 -8q-158 0 -226.5 89t-68.5 249zM242 1272v12v6v10q4 98 45 149.5t139 51.5q49 0 85 -16.5 t57.5 -44t31.5 -63.5t10 -72v-19v-8v-6q-2 -88 -44 -142.5t-140 -54.5t-138 51.5t-46 145.5zM262 311q0 -74 39 -117.5t107 -43.5q37 0 61.5 11t38.5 27q16 16 27 39v299q-12 -4 -33 -8q-16 -4 -42 -8t-63 -8q-59 -6 -97 -54.5t-38 -117.5v-19zM344 1268q0 -115 82 -115 q37 0 58.5 27.5t21.5 91.5v8v23q0 117 -80 116q-82 0 -82 -110v-19v-6v-16z" />
<glyph unicode="&#xe6;" horiz-adv-x="1208" d="M59 289v88q0 166 79 238.5t214 72.5q57 0 98.5 -18.5t63.5 -40.5v76q0 33 -3 62.5t-15.5 52t-37 34.5t-67.5 12t-67.5 -10t-36 -25.5t-14.5 -34t-3 -36.5v2q0 -43 -48 -59.5t-103 -16.5h-43v102q0 51 16.5 96.5t53 79t96 54t147.5 20.5q82 0 140.5 -18.5t95.5 -52.5 q82 63 209 63q154 0 234.5 -85t80.5 -243v-133q0 -102 -135 -102h-299v-166q0 -80 34.5 -114.5t92.5 -34.5q55 0 83.5 36.5t28.5 73.5v23q0 47 28 80.5t81 33.5h86v-135q0 -135 -82 -204.5t-233 -69.5q-162 0 -242 96q-12 -20 -38 -37.5t-58.5 -31t-67.5 -20.5t-63 -7 q-100 0 -161 21.5t-92.5 61.5t-42 95t-10.5 121zM244 301q0 -74 31.5 -111.5t113.5 -37.5q45 0 70.5 12t38 31.5t15.5 44t3 49.5v155q0 47 -32.5 77t-104.5 30t-103.5 -40t-31.5 -120v-90zM715 629h213h26v82q0 82 -31.5 119.5t-88.5 37.5q-55 0 -87 -38.5t-32 -118.5v-82z " />
<glyph unicode="&#xe7;" d="M79 299v426q0 158 81 233.5t235 75.5q74 0 132 -21.5t98 -58t61.5 -86t21.5 -104.5v-105h-84q-111 0 -110 84q0 51 -32 90t-87 39q-57 0 -89 -37.5t-32 -103.5v-436q0 -82 31.5 -111.5t89.5 -29.5q55 0 87 32.5t32 104.5v2q0 96 110 96h84v-119q0 -135 -83 -206.5 t-230 -71.5q-154 0 -235 75.5t-81 231.5zM260 -311q2 12 6 20q2 8 4 16.5t4 14.5q4 23 20.5 28t32.5 1l66 -19q8 -2 19.5 4t15.5 25q8 37 -25 45l-67 16v160h88v-86q53 -16 75.5 -58t8.5 -98q-16 -57 -51 -83.5t-89 -14.5z" />
<glyph unicode="&#xe8;" horiz-adv-x="768" d="M59 297v405q0 158 86 244t240 86q152 0 238 -86t86 -244v-131q0 -102 -136 -102h-319v-186q0 -82 40 -106.5t97 -24.5q55 0 90 29.5t33 76.5v8q0 47 27.5 81t83.5 34h84v-137q0 -133 -87 -193.5t-237 -60.5q-154 0 -240 75.5t-86 231.5zM254 608h233h27v105 q0 80 -37 118.5t-92 38.5q-57 0 -94 -38.5t-37 -118.5v-105zM256 1276q-6 6 0 6l96 78q0 6 6 0l174 -254q6 0 0 -6l-55 -49q-4 0 -6 2z" />
<glyph unicode="&#xe9;" d="M73 297v405q0 158 86 244t240 86q152 0 238 -86t86 -244v-131q0 -102 -136 -102h-319v-186q0 -82 40 -106.5t97 -24.5q55 0 90 29.5t33 76.5v8q0 47 27.5 81t83.5 34h84v-137q0 -133 -87 -193.5t-237 -60.5q-154 0 -240 75.5t-86 231.5zM248 1104q-6 0 0 6l213 215 q0 6 6 0l80 -92q0 -4 -2 -6l-242 -178q-6 -6 -6 0zM268 608h233h27v105q0 80 -37 118.5t-92 38.5q-57 0 -94 -38.5t-37 -118.5v-105z" />
<glyph unicode="&#xea;" horiz-adv-x="776" d="M63 297v405q0 158 86 244t240 86q152 0 238 -86t86 -244v-131q0 -102 -136 -102h-319v-186q0 -82 40 -106.5t97 -24.5q55 0 90 29.5t33 76.5v8q0 47 27.5 81t83.5 34h84v-137q0 -133 -87 -193.5t-237 -60.5q-154 0 -240 75.5t-86 231.5zM166 1079q-6 0 0 6l213 213h4h2 l213 -213q6 -6 0 -6l-53 -51q-2 -2 -5 0l-155 106q-4 2 -6 0l-156 -106q-4 -4 -4 0zM258 608h233h27v105q0 80 -37 118.5t-92 38.5q-57 0 -94 -38.5t-37 -118.5v-105z" />
<glyph unicode="&#xeb;" horiz-adv-x="802" d="M84 297v405q0 158 86 244t240 86q152 0 238 -86t86 -244v-131q0 -102 -136 -102h-319v-186q0 -82 40 -106.5t97 -24.5q55 0 90 29.5t33 76.5v8q0 47 27.5 81t83.5 34h84v-137q0 -133 -87 -193.5t-237 -60.5q-154 0 -240 75.5t-86 231.5zM162 1161q0 80 25 80h2h108 q14 0 18.5 -21.5t4.5 -58.5q0 -82 -21 -82h-110q-27 0 -27 82zM279 608h233h27v105q0 80 -37 118.5t-92 38.5q-57 0 -94 -38.5t-37 -118.5v-105zM484 1161q0 80 22 80h4l109 2q16 0 20 -22.5t4 -59.5q0 -82 -20 -82h-113q-27 0 -26 82z" />
<glyph unicode="&#xec;" horiz-adv-x="440" d="M29 1296q-6 6 0 7l96 77q0 6 6 0l174 -254q6 0 0 -6l-55 -49q-4 0 -6 2zM39 0h336l-2 57q0 39 -15.5 63t-31.5 34q-10 6 -16.5 15t-6.5 28v790q0 39 -47 39h-217v-70q0 -35 15.5 -57t29.5 -33q23 -14 25 -37v-639q-2 -14 -8.5 -21t-14.5 -13q-16 -10 -31.5 -34t-15.5 -63 v-59z" />
<glyph unicode="&#xed;" horiz-adv-x="448" d="M55 1133q-6 0 0 6l213 215q0 6 6 0l80 -92q0 -4 -2 -7l-241 -178q-6 -6 -7 0zM57 0h336l-2 57q0 39 -15.5 63t-31.5 34q-10 6 -16 15t-6 28v790q0 39 -48 39h-217v-70q0 -35 15.5 -57t29.5 -33q23 -14 25 -37v-639q-2 -14 -8 -21t-15 -13q-16 -10 -31.5 -34t-15.5 -63 v-59z" />
<glyph unicode="&#xee;" horiz-adv-x="440" d="M-31 1102q-6 0 0 6l213 213h4h2l213 -213q6 -6 0 -6l-53 -51q-2 -2 -4 0l-156 106q-4 2 -6 0l-155 -106q-4 -4 -4 0zM57 0v59q0 39 15.5 62.5t31.5 34.5q8 6 14.5 13t8.5 21v639q-2 23 -25 37q-14 10 -29.5 33t-15.5 57v70h217q47 0 48 -39v-790q0 -18 6 -27.5t16 -15.5 q16 -10 31.5 -34t15.5 -63l2 -57h-336z" />
<glyph unicode="&#xef;" horiz-adv-x="440" d="M-80 1178q0 80 25 79h2h108q14 0 18.5 -21t4.5 -58q0 -82 -21 -82h-110q-27 0 -27 82zM39 0v59q0 39 15.5 62.5t31.5 34.5q8 6 14 13t9 21v639q-2 23 -25 37q-14 10 -29.5 33t-15.5 57v70h217q47 0 47 -39v-790q0 -18 6.5 -27.5t16.5 -15.5q16 -10 31.5 -34t15.5 -63 l2 -57h-336zM242 1178q0 80 22 79h4l109 3q16 0 20 -22.5t4 -59.5q0 -82 -20 -82h-113q-27 0 -26 82z" />
<glyph unicode="&#xf1;" horiz-adv-x="870" d="M39 0v61q0 39 15.5 61.5t31.5 33.5q10 8 16.5 16t6.5 31v626q0 12 -7.5 20.5t-17.5 14.5q-14 10 -29.5 33t-15.5 57v70h223q16 0 23.5 -7t11.5 -16q4 -8 6 -20q20 14 47 25q23 10 56.5 18t76.5 8q154 0 217.5 -82t63.5 -239v-514q0 -18 6 -26.5t16 -14.5q14 -12 29.5 -35 t15.5 -62v-59h-169q-53 0 -73 38t-20 91v584q0 84 -38.5 116.5t-94.5 32.5q-35 0 -59.5 -9t-40.5 -19q-20 -12 -33 -27v-608q0 -20 6 -28.5t17 -14.5q16 -12 31.5 -35t15.5 -62v-59h-334zM251 1122v66q0 18 5 27.5t14 17.5q15 11 31.5 20.5t59.5 9.5q33 0 55 -4t41 -10.5 t36 -11t38 -4.5q30 0 48.5 5.5t39.5 16.5q9 6 14.5 2t5.5 -13v-78q0 -23 -13 -33q-15 -13 -35.5 -23.5t-54.5 -10.5q-46 0 -93.5 15t-90.5 15q-28 0 -46 -8t-34 -16q-21 -6 -21 17z" />
<glyph unicode="&#xf2;" d="M69 307v414q0 158 86 234.5t240 76.5q74 0 133.5 -21.5t102.5 -59.5t65.5 -88t22.5 -105v-482q0 -133 -88.5 -209.5t-235.5 -76.5q-154 0 -240 80t-86 237zM262 1288q-6 6 0 6l96 78q0 6 6 0l174 -254q6 0 0 -6l-55 -49q-4 0 -6 2zM264 297q0 -80 37 -111.5t94 -31.5 q55 0 92 34.5t37 104.5v428q0 88 -39 118.5t-94 30.5q-57 0 -92 -29.5t-35 -111.5v-432z" />
<glyph unicode="&#xf3;" d="M69 307v414q0 158 86 234.5t240 76.5q74 0 133.5 -21.5t102.5 -59.5t65.5 -88t22.5 -105v-482q0 -133 -88.5 -209.5t-235.5 -76.5q-154 0 -240 80t-86 237zM248 1110q-6 0 0 6l213 215q0 6 6 0l80 -92q0 -4 -2 -6l-242 -178q-6 -6 -6 0zM264 297q0 -80 37 -111.5 t94 -31.5q55 0 92 34.5t37 104.5v428q0 88 -39 118.5t-94 30.5q-57 0 -92 -29.5t-35 -111.5v-432z" />
<glyph unicode="&#xf4;" horiz-adv-x="819" d="M82 307v414q0 158 86 234.5t240 76.5q74 0 133.5 -21.5t102.5 -59.5t65.5 -88t22.5 -105v-482q0 -133 -88.5 -209.5t-235.5 -76.5q-154 0 -240 80t-86 237zM195 1108q-6 0 0 6l213 213h4h2l213 -213q6 -6 0 -6l-53 -51q-2 -2 -5 0l-155 106q-4 2 -6 0l-156 -106 q-4 -4 -4 0zM277 297q0 -80 37 -111.5t94 -31.5q55 0 92 34.5t37 104.5v428q0 88 -39 118.5t-94 30.5q-57 0 -92 -29.5t-35 -111.5v-432z" />
<glyph unicode="&#xf5;" d="M69 307v414q0 158 86 234.5t240 76.5q74 0 133.5 -21.5t102.5 -59.5t65.5 -88t22.5 -105v-482q0 -133 -88.5 -209.5t-235.5 -76.5q-154 0 -240 80t-86 237zM180 1116v62q0 17 5 26t14 16q14 10 30.5 19t58.5 9q32 0 53.5 -4t40 -10t35 -10t37.5 -4q29 0 47 5t38 15 q9 6 14.5 2t5.5 -12v-73q0 -22 -13 -31q-14 -12 -34 -22t-53 -10q-46 0 -92 14t-87 14q-28 0 -45.5 -7t-33.5 -15q-21 -6 -21 16zM264 297q0 -80 37 -111.5t94 -31.5q55 0 92 34.5t37 104.5v428q0 88 -39 118.5t-94 30.5q-57 0 -92 -29.5t-35 -111.5v-432z" />
<glyph unicode="&#xf6;" d="M69 307v414q0 158 86 234.5t240 76.5q74 0 133.5 -21.5t102.5 -59.5t65.5 -88t22.5 -105v-482q0 -133 -88.5 -209.5t-235.5 -76.5q-154 0 -240 80t-86 237zM141 1167q0 80 25 80h2h108q14 0 18.5 -21.5t4.5 -58.5q0 -82 -21 -82h-110q-27 0 -27 82zM264 297 q0 -80 37 -111.5t94 -31.5q55 0 92 34.5t37 104.5v428q0 88 -39 118.5t-94 30.5q-57 0 -92 -29.5t-35 -111.5v-432zM463 1167q0 80 22 80h4l109 2q16 0 20 -22.5t4 -59.5q0 -82 -20 -82h-113q-27 0 -26 82z" />
<glyph unicode="&#xf7;" horiz-adv-x="823" d="M49 543v153q0 6 6 6h713q6 0 6 -6v-153q0 -6 -6 -6h-713q-6 0 -6 6zM301 254v4v145q0 18 31 24.5t78 6.5q49 0 79.5 -7t30.5 -19v-150q0 -16 -30.5 -25.5t-79.5 -9.5t-79 7.5t-30 23.5zM301 836v2v147q0 20 31 25.5t78 5.5q49 0 79.5 -6t30.5 -23v-149q0 -16 -30.5 -23.5 t-79.5 -7.5t-79 6t-30 23z" />
<glyph unicode="&#xf8;" d="M70 10l57 115q-47 78 -47 199v385q0 158 81 242.5t234 84.5q53 0 97.5 -12t78.5 -35l17 29q0 6 6 6h119q6 0 4 -6l-58 -113q23 -35 36.5 -76t13.5 -84v-452q0 -133 -83 -216t-231 -83q-109 0 -182 45l-14 -29q-6 -6 -9 -6h-116q-4 0 -4 6zM274 408l213 417 q-16 27 -40.5 38t-55.5 11q-117 0 -117 -157v-309zM299 205q31 -47 96 -47q55 0 87 41t32 110v314z" />
<glyph unicode="&#xf9;" horiz-adv-x="864" d="M39 956v68h190q33 0 49.5 -15.5t16.5 -54.5v-657q0 -82 38 -120t95 -38q37 0 61.5 9.5t39 19.5t20.5 20l6 11v622q0 16 -7 26.5t-18 16.5q-16 12 -27 34t-11 58v68h192q35 0 50.5 -19.5t15.5 -41.5v-689v207v-14v-270q0 -18 5 -26.5t15 -14.5q16 -12 31.5 -35t15.5 -62 v-59h-172q-37 0 -49 9t-23 30q-31 -29 -69.5 -41t-77.5 -12q-152 0 -239 80.5t-87 238.5v516q0 16 -7 26.5t-17 16.5q-16 12 -26.5 34t-10.5 58zM256 1280q-6 6 0 6l96 78q0 6 6 0l174 -254q6 0 0 -6l-55 -49q-4 0 -6 2z" />
<glyph unicode="&#xfa;" horiz-adv-x="864" d="M39 956v68h190q33 0 49.5 -15.5t16.5 -54.5v-657q0 -82 38 -120t95 -38q37 0 61.5 9.5t39 19.5t20.5 20l6 11v622q0 16 -7 26.5t-18 16.5q-16 12 -27 34t-11 58v68h192q35 0 50.5 -19.5t15.5 -41.5v-689v207v-14v-270q0 -18 5 -26.5t15 -14.5q16 -12 31.5 -35t15.5 -62 v-59h-172q-37 0 -49 9t-23 30q-31 -29 -69.5 -41t-77.5 -12q-152 0 -239 80.5t-87 238.5v516q0 16 -7 26.5t-17 16.5q-16 12 -26.5 34t-10.5 58zM260 1112q-6 0 0 6l213 215q0 6 6 0l80 -92q0 -4 -2 -6l-242 -178q-6 -6 -6 0z" />
<glyph unicode="&#xfb;" horiz-adv-x="864" d="M39 956v68h190q33 0 49.5 -15.5t16.5 -54.5v-657q0 -82 38 -120t95 -38q37 0 61.5 9.5t39 19.5t20.5 20l6 11v622q0 16 -7 26.5t-18 16.5q-16 12 -27 34t-11 58v68h192q35 0 50.5 -19.5t15.5 -41.5v-689v207v-14v-270q0 -18 5 -26.5t15 -14.5q16 -12 31.5 -35t15.5 -62 v-59h-172q-37 0 -49 9t-23 30q-31 -29 -69.5 -41t-77.5 -12q-152 0 -239 80.5t-87 238.5v516q0 16 -7 26.5t-17 16.5q-16 12 -26.5 34t-10.5 58zM181 1108q-6 0 0 6l213 213h4h2l213 -213q6 -6 0 -6l-53 -51q-2 -2 -5 0l-155 106q-4 2 -6 0l-156 -106q-4 -4 -4 0z" />
<glyph unicode="&#xfc;" horiz-adv-x="864" d="M39 956v68h190q33 0 49.5 -15.5t16.5 -54.5v-657q0 -82 38 -120t95 -38q37 0 61.5 9.5t39 19.5t20.5 20l6 11v622q0 16 -7 26.5t-18 16.5q-16 12 -27 34t-11 58v68h192q35 0 50.5 -19.5t15.5 -41.5v-689v207v-14v-270q0 -18 5 -26.5t15 -14.5q16 -12 31.5 -35t15.5 -62 v-59h-172q-37 0 -49 9t-23 30q-31 -29 -69.5 -41t-77.5 -12q-152 0 -239 80.5t-87 238.5v516q0 16 -7 26.5t-17 16.5q-16 12 -26.5 34t-10.5 58zM153 1157q0 80 25 80h2h108q14 0 18.5 -21.5t4.5 -58.5q0 -82 -21 -82h-110q-27 0 -27 82zM475 1157q0 80 22 80h4l109 2 q16 0 20 -22.5t4 -59.5q0 -82 -20 -82h-113q-27 0 -26 82z" />
<glyph unicode="&#xfd;" horiz-adv-x="802" d="M55 956v70h160q31 0 45 -9t20 -48q0 -2 5 -38t14.5 -94.5t19.5 -132t23 -151.5q27 -182 61 -412q35 223 62 404q12 76 23 149.5t20.5 134t15.5 98.5t6 44q4 29 18.5 42t57.5 13h143v-59q0 -39 -9 -57.5t-17 -24.5q-10 -6 -12.5 -11.5t-4.5 -9.5q-4 -18 -15 -79.5 t-27.5 -152.5t-36 -200.5t-40 -223.5t-40 -223.5t-36 -197.5t-26.5 -146.5t-12 -70.5q-10 -53 -24.5 -69.5t-47.5 -16.5h-98h-41v104q0 57 35 72q12 4 19 8t11 15l58 317h-76q-55 0 -66 57q-8 41 -19 106.5t-25.5 141.5t-29 158t-27.5 154.5t-25.5 131t-18.5 89.5 q-6 23 -21 34q-16 10 -19 30t-3 54zM291 1116q-6 0 0 6l213 215q0 6 6 0l80 -92q0 -4 -2 -6l-242 -178q-6 -6 -6 0z" />
<glyph unicode="&#xfe;" horiz-adv-x="753" d="M45 -319v1630q0 6 6 6h180q6 0 7 -6v-332q10 10 57 30.5t121 20.5q154 0 217 -80t63 -237v-383q0 -158 -70.5 -249t-224.5 -91q-59 0 -94 14t-69 41v-364q0 -4 -7 -5h-180q-6 0 -6 5zM238 223q2 -4 13 -13t28.5 -19.5t43 -18.5t58.5 -8q57 0 89 38t32 120v399 q-4 82 -41 123t-92 41q-31 0 -53.5 -8.5t-39 -19.5t-26.5 -21.5t-12 -12.5v-600z" />
<glyph unicode="&#xff;" horiz-adv-x="802" d="M55 956v70h160q31 0 45 -9t20 -48q0 -2 5 -38t14.5 -94.5t19.5 -132t23 -151.5q27 -182 61 -412q35 223 62 404q12 76 23 149.5t20.5 134t15.5 98.5t6 44q4 29 18.5 42t57.5 13h143v-59q0 -39 -9 -57.5t-17 -24.5q-10 -6 -12.5 -11.5t-4.5 -9.5q-4 -18 -15 -79.5 t-27.5 -152.5t-36 -200.5t-40 -223.5t-40 -223.5t-36 -197.5t-26.5 -146.5t-12 -70.5q-10 -53 -24.5 -69.5t-47.5 -16.5h-98h-41v104q0 57 35 72q12 4 19 8t11 15l58 317h-76q-55 0 -66 57q-8 41 -19 106.5t-25.5 141.5t-29 158t-27.5 154.5t-25.5 131t-18.5 89.5 q-6 23 -21 34q-16 10 -19 30t-3 54zM160 1171q0 80 25 80h2h108q14 0 18.5 -21.5t4.5 -58.5q0 -82 -21 -82h-110q-27 0 -27 82zM482 1171q0 80 22 80h4l109 2q16 0 20 -22.5t4 -59.5q0 -82 -20 -82h-113q-27 0 -26 82z" />
<glyph unicode="&#x152;" horiz-adv-x="1142" d="M49 293v950q0 158 88 232.5t240 74.5q76 0 135 -18h530q25 0 39.5 -14.5t14.5 -30.5v-217h-76q-43 0 -72.5 11t-29.5 46q0 12 -6.5 23.5t-22.5 11.5h-156q-10 0 -19 -9.5t-9 -21.5v-428q0 -29 30 -29h203q10 0 21.5 -7t11.5 -23v-115q0 -29 -31 -29h-205q-31 0 -30 -28 v-477q0 -29 24 -29h164q23 0 22 27q0 33 28 51t75 18h78v-211q0 -23 -15.5 -37t-38.5 -14h-127h-358h-51q-61 -16 -129 -16q-152 0 -240 75.5t-88 233.5zM250 301q0 -82 34.5 -114.5t92.5 -32.5q57 0 92 32.5t35 114.5v934q0 82 -35 114.5t-92 32.5t-92 -32.5t-35 -114.5 v-934z" />
<glyph unicode="&#x153;" horiz-adv-x="1245" d="M69 307v414q0 158 86 234.5t240 76.5q74 0 133.5 -21.5t102.5 -59.5t65.5 -88t22.5 -105v-482q0 -133 -88.5 -209.5t-235.5 -76.5q-154 0 -240 80t-86 237zM264 297q0 -80 37 -111.5t94 -31.5q55 0 92 34.5t37 104.5v428q0 88 -39 118.5t-94 30.5q-57 0 -92 -29.5 t-35 -111.5v-432zM526 297v405q0 158 86 244t240 86q152 0 238 -86t86 -244v-131q0 -102 -136 -102h-319v-186q0 -82 40 -106.5t97 -24.5q55 0 90 29.5t33 76.5v8q0 47 27.5 81t83.5 34h84v-137q0 -133 -87 -193.5t-237 -60.5q-154 0 -240 75.5t-86 231.5zM721 608h233h27 v105q0 80 -37 118.5t-92 38.5q-57 0 -94 -38.5t-37 -118.5v-105z" />
<glyph unicode="&#x178;" horiz-adv-x="956" d="M55 1468v62h332v-68q0 -37 -13.5 -55t-29.5 -29q-10 -8 -20.5 -16t-6.5 -25q0 -4 7 -28.5t17.5 -61.5t23.5 -82l26 -90q31 -109 67 -244h13q43 135 77 246q14 45 28.5 90t26 82t19.5 60.5t8 27.5q4 16 -5 24.5t-19 16.5q-16 10 -30.5 32t-14.5 58v62h334v-62 q0 -35 -14.5 -57t-30.5 -33q-8 -6 -20.5 -14t-16.5 -25q-2 -4 -13.5 -38.5t-28 -88t-38 -121t-43.5 -137.5q-53 -164 -119 -368v-387v-2q0 -20 5 -28.5t15 -14.5q16 -12 33 -35t17 -58v-61h-342v61q0 35 16 57.5t33 35.5q10 6 15 14t5 27v391q-66 209 -119 375 q-23 70 -44 138t-37.5 121.5t-27.5 87t-11 38.5q-4 12 -13.5 20t-13.5 12q-16 10 -31.5 33t-15.5 57zM237 1667q0 80 25 80h2h108q14 0 18.5 -21.5t4.5 -58.5q0 -82 -21 -82h-110q-27 0 -27 82zM559 1667q0 80 22 80h4l109 2q16 0 20 -22.5t4 -59.5q0 -82 -20 -82h-113 q-27 0 -26 82z" />
<glyph unicode="&#x2c6;" horiz-adv-x="595" d="M72 1276q-6 0 0 6l213 213h4h2l213 -213q6 -6 0 -6l-53 -51q-2 -2 -5 0l-155 106q-4 2 -6 0l-156 -106q-4 -4 -4 0z" />
<glyph unicode="&#x2dc;" horiz-adv-x="532" d="M61 1262v65q0 18 5.5 27.5t15.5 17.5q16 10 34.5 19.5t65.5 9.5q35 0 59.5 -4t45 -10.5t39 -10.5t41.5 -4q33 0 53 5t43 16q10 6 16 2t6 -13v-77q0 -23 -14 -33q-16 -12 -38.5 -22.5t-59.5 -10.5q-51 0 -102.5 14.5t-98.5 14.5q-31 0 -50.5 -7.5t-37.5 -15.5 q-23 -6 -23 17z" />
<glyph unicode="&#x2000;" horiz-adv-x="947" />
<glyph unicode="&#x2001;" horiz-adv-x="1895" />
<glyph unicode="&#x2002;" horiz-adv-x="947" />
<glyph unicode="&#x2003;" horiz-adv-x="1895" />
<glyph unicode="&#x2004;" horiz-adv-x="631" />
<glyph unicode="&#x2005;" horiz-adv-x="473" />
<glyph unicode="&#x2006;" horiz-adv-x="315" />
<glyph unicode="&#x2007;" horiz-adv-x="315" />
<glyph unicode="&#x2008;" horiz-adv-x="236" />
<glyph unicode="&#x2009;" horiz-adv-x="379" />
<glyph unicode="&#x200a;" horiz-adv-x="105" />
<glyph unicode="&#x2010;" horiz-adv-x="487" d="M49 532v154q0 6 6 6h377q6 0 6 -6v-154q0 -6 -6 -6h-377q-6 0 -6 6z" />
<glyph unicode="&#x2011;" horiz-adv-x="487" d="M49 532v154q0 6 6 6h377q6 0 6 -6v-154q0 -6 -6 -6h-377q-6 0 -6 6z" />
<glyph unicode="&#x2012;" horiz-adv-x="487" d="M49 532v154q0 6 6 6h377q6 0 6 -6v-154q0 -6 -6 -6h-377q-6 0 -6 6z" />
<glyph unicode="&#x2013;" horiz-adv-x="702" d="M49 535v153q0 6 6 6h592q6 0 6 -6v-153q0 -6 -6 -7h-592q-6 0 -6 7z" />
<glyph unicode="&#x2014;" horiz-adv-x="1067" d="M49 541v153q0 6 6 6h957q6 0 6 -6v-153q0 -6 -6 -6h-957q-6 0 -6 6z" />
<glyph unicode="&#x2018;" horiz-adv-x="290" d="M49 1362v41v127q0 26 96 26q45 0 70 -6t25 -24v-123q0 -16 -19.5 -23.5t-66.5 -7.5t-39 -48t71 -112q20 -20 21.5 -27t-12.5 -20q-14 -10 -20.5 -14t-24.5 14q-31 31 -50.5 52.5t-31 42t-15.5 44t-4 58.5z" />
<glyph unicode="&#x2019;" horiz-adv-x="309" d="M57 1393v123q0 18 31 24t76 6q47 0 65.5 -7t18.5 -19v-127v-41q0 -35 -4 -58.5t-15.5 -44t-31 -42t-50.5 -52.5q-18 -18 -24 -14l-21 14q-14 12 -13 19.5t22 27.5q63 63 71 111.5t-39 48.5t-66.5 7t-19.5 24z" />
<glyph unicode="&#x201a;" horiz-adv-x="309" d="M49 6v144q0 18 31 24t76 6q47 0 75.5 -7t28.5 -19v-148v-41q0 -35 -4 -58.5t-15.5 -44t-31 -42t-49.5 -51.5q-18 -18 -24.5 -14.5t-20.5 14.5q-14 12 -13.5 19t21.5 28q63 63 61 111t-49 48t-66.5 7.5t-19.5 23.5z" />
<glyph unicode="&#x201c;" horiz-adv-x="591" d="M49 1157v127v41q0 33 4 57.5t15.5 45t31 42t50.5 52.5q18 16 24 13t21 -13q14 -12 13 -19.5t-22 -27.5q-63 -63 -61 -111.5t49 -48.5t56.5 -7.5t9.5 -23.5v-123q0 -18 -20.5 -24.5t-65.5 -6.5q-47 0 -76 7.5t-29 19.5zM332 1157v127v41q0 33 4 57.5t15 45t30.5 42 t50.5 52.5q18 16 24.5 13t20.5 -13q14 -12 13 -19.5t-21 -27.5q-63 -63 -61 -111.5t49 -48.5t56 -7.5t9 -23.5v-123q0 -18 -20.5 -24.5t-65.5 -6.5q-47 0 -75.5 7.5t-28.5 19.5z" />
<glyph unicode="&#x201d;" horiz-adv-x="579" d="M70 1384v123q0 18 30.5 24.5t75.5 6.5q47 0 65.5 -7.5t18.5 -19.5v-127v-41q0 -35 -4 -58t-15.5 -43.5t-31 -42t-49.5 -52.5q-18 -18 -24.5 -14t-20.5 14q-14 12 -13.5 19.5t21.5 27.5q63 63 71.5 111.5t-38.5 48.5t-66.5 7t-19.5 23zM340 1384v123q0 18 30.5 24.5 t75.5 6.5q47 0 65.5 -7.5t18.5 -19.5v-127v-41q0 -35 -4 -58t-15 -43.5t-30.5 -42t-50.5 -52.5q-18 -18 -24.5 -14t-20.5 14q-14 12 -13 19.5t21 27.5q63 63 71.5 111.5t-38.5 48.5t-66.5 7t-19.5 23z" />
<glyph unicode="&#x201e;" horiz-adv-x="561" d="M49 6v144q0 18 31 24t76 6q47 0 75.5 -7t28.5 -19v-148v-41q0 -35 -4 -58.5t-15.5 -44t-31 -42t-49.5 -51.5q-18 -18 -24.5 -14.5t-20.5 14.5q-14 12 -13.5 19t21.5 28q63 63 61 111t-49 48t-66.5 7.5t-19.5 23.5zM301 6v144q0 18 30.5 24t76.5 6q47 0 75.5 -7t28.5 -19 v-148v-41q0 -35 -4 -58.5t-15.5 -44t-31 -42t-49.5 -51.5q-18 -18 -24.5 -14.5t-20.5 14.5q-14 12 -13.5 19t21.5 28q63 63 61 111t-49 48t-66.5 7.5t-19.5 23.5z" />
<glyph unicode="&#x2022;" horiz-adv-x="358" d="M51 741v4v166q0 18 41 25.5t88 7.5q49 0 90 -7.5t41 -21.5v-170q0 -16 -41 -25t-90 -9t-89 7t-40 23z" />
<glyph unicode="&#x2026;" horiz-adv-x="974" d="M49 0v4v146q0 18 31 25t78 7q49 0 79.5 -7t30.5 -21v-150q0 -16 -30.5 -25.5t-79.5 -9.5t-79 7.5t-30 23.5zM383 0v4v146q0 18 30.5 25t78.5 7q49 0 79.5 -7t30.5 -21v-150q0 -16 -30.5 -25.5t-79.5 -9.5t-79 7.5t-30 23.5zM707 0v4v146q0 18 30.5 25t77.5 7q49 0 80 -7 t31 -21v-150q0 -16 -31 -25.5t-80 -9.5t-78.5 7.5t-29.5 23.5z" />
<glyph unicode="&#x202f;" horiz-adv-x="379" />
<glyph unicode="&#x2039;" horiz-adv-x="638" d="M49 612l4 4q98 98 199.5 209t218.5 228q4 4 8 0l88 -92q4 -4 0 -9l-295 -336q-8 -4 0 -8l295 -338q2 -2 0 -8l-86 -86q-4 -4 -8 0q-80 80 -134 135.5t-93 95t-64.5 66.5t-45 48.5t-39 42t-44.5 44.5z" />
<glyph unicode="&#x203a;" horiz-adv-x="620" d="M51 279q-2 6 0 8l283 323q4 4 0 8l-283 324q-4 4 0 8l88 88q4 4 8 0l420 -420l4 -4l-4 -4l-420 -417q-4 -8 -8 0z" />
<glyph unicode="&#x205f;" horiz-adv-x="473" />
<glyph unicode="&#x20ac;" horiz-adv-x="876" d="M39 637v102h151v82h-151v105h151v299q0 158 83 242.5t237 84.5q152 0 234.5 -85t82.5 -242v-174h-88q-51 0 -82.5 31.5t-31.5 80.5v64q0 158 -115 157q-117 0 -117 -157v-301h250v-105h-250v-82h250v-102h-250v-324q0 -158 117 -157q115 0 115 157v60q0 47 27.5 80.5 t82.5 33.5h92v-172q0 -158 -82.5 -243.5t-234.5 -85.5q-154 0 -237 86t-83 243v322h-151z" />
<glyph unicode="&#x2122;" horiz-adv-x="1071" d="M41 1219v59v29q0 41 49 41h318q41 0 41 -45v-31v-53h-52q-31 0 -30 32q0 14 -11 15h-47q-14 0 -14 -17v-540q0 -14 10 -21q8 -6 15.5 -17.5t7.5 -27.5v-27h-162v27q0 16 7 27.5t15 17.5q10 6 11 21v542q0 14 -15 15h-43q-14 0 -14 -15q0 -33 -41 -32h-45zM469 616v29 q0 16 7 26.5t16 16.5q10 6 10 21v553q-8 2 -17 10q-6 6 -11 16t-5 27v31h98q12 0 21 -15q10 -25 33.5 -81t48 -114.5t44 -104.5t21.5 -48q4 -10 8 0q12 27 25 55q10 25 23.5 55.5t29.5 63.5q35 76 76 174q6 14 23 15h88v-31q0 -16 -5.5 -26.5t-11.5 -16.5q-8 -8 -16 -10 v-549q0 -10 4 -13.5t8 -7.5q6 -6 14.5 -16t8.5 -29v-31h-160v31q0 16 8 27.5t14 17.5q4 4 8.5 7t4.5 14v379q0 2 -3 3t-5 -3q-33 -70 -56 -127q-23 -49 -39 -92.5t-20 -49.5q-6 -14 -23.5 -14t-21.5 14q-4 6 -22.5 48t-39.5 92q-25 57 -53 129q0 2 -2 2t-2 -4v-379v-2 q0 -14 10 -21q8 -6 15.5 -16t7.5 -27v-29h-162z" />
<glyph unicode="&#xe000;" horiz-adv-x="1024" d="M0 0v1024h1024v-1024h-1024z" />
</font>
</defs>
</svg>
